<?xml version="1.0" encoding="UTF-8" standalone="no"?>
<svg width="20px" height="20px" viewBox="0 0 20 20" version="1.1" xmlns="http://www.w3.org/2000/svg" xmlns:xlink="http://www.w3.org/1999/xlink">
    <!-- Generator: Sketch 43.1 (39012) - http://www.bohemiancoding.com/sketch -->
    <title>link</title>
    <desc>Created with Sketch.</desc>
    <defs></defs>
    <g id="Page-1" stroke="none" stroke-width="1" fill="none" fill-rule="evenodd">
        <g id="link" fill-rule="nonzero" fill="#FFFFFF">
            <g id="Group">
                <path d="M18.4210526,1.63157895 C17.4210526,0.631578947 16.1052632,0.0526315789 14.6842105,0.0526315789 C13.2631579,0.0526315789 11.9473684,0.631578947 10.9473684,1.63157895 L7.78947368,4.78947368 C6.78947368,5.78947368 6.21052632,7.10526316 6.21052632,8.52631579 C6.21052632,9.89473684 6.73684211,11.2105263 7.78947368,12.2631579 C8.36842105,12.8421053 9.05263158,13.2631579 9.73684211,13.5263158 C9.84210526,13.5789474 9.89473684,13.5789474 10,13.5789474 C10.3157895,13.5789474 10.6842105,13.3684211 10.7894737,13.0526316 C10.9473684,12.6315789 10.7368421,12.1578947 10.3157895,12 C9.78947368,11.8421053 9.36842105,11.5263158 8.94736842,11.1578947 C8.26315789,10.4736842 7.89473684,9.52631579 7.89473684,8.57894737 C7.89473684,7.63157895 8.26315789,6.68421053 8.94736842,6 L12.1052632,2.84210526 C12.7894737,2.15789474 13.7368421,1.78947368 14.6842105,1.78947368 C15.6315789,1.78947368 16.5263158,2.15789474 17.2631579,2.84210526 C17.9473684,3.47368421 18.3157895,4.42105263 18.3157895,5.42105263 C18.3157895,6.36842105 17.9473684,7.31578947 17.2631579,8 L14.3157895,10.9473684 C14,11.2631579 14,11.7894737 14.3157895,12.1052632 C14.6315789,12.4210526 15.1578947,12.4210526 15.4736842,12.1052632 L18.4210526,9.15789474 C19.4210526,8.15789474 19.9473684,6.78947368 19.9473684,5.42105263 C20,3.94736842 19.4210526,2.63157895 18.4210526,1.63157895 Z" id="Shape"></path>
                <path d="M10.3157895,6.47368421 C9.89473684,6.31578947 9.42105263,6.52631579 9.26315789,6.94736842 C9.10526316,7.36842105 9.31578947,7.84210526 9.73684211,8 C10.2631579,8.15789474 10.6842105,8.47368421 11.1052632,8.84210526 C12.5263158,10.2631579 12.5263158,12.5789474 11.1052632,14 L7.94736842,17.1578947 C6.52631579,18.5789474 4.21052632,18.5789474 2.78947368,17.1578947 C1.36842105,15.7368421 1.36842105,13.4210526 2.78947368,12 L5.73684211,9.05263158 C6.05263158,8.73684211 6.05263158,8.21052632 5.73684211,7.89473684 C5.42105263,7.57894737 4.89473684,7.57894737 4.57894737,7.89473684 L1.63157895,10.8421053 C0.631578947,11.8421053 0.0526315789,13.1578947 0.0526315789,14.5789474 C0.0526315789,16 0.631578947,17.3157895 1.63157895,18.3157895 C2.63157895,19.3157895 3.94736842,19.8947368 5.36842105,19.8947368 C6.78947368,19.8947368 8.10526316,19.3157895 9.10526316,18.3157895 L12.2631579,15.1578947 C13.2631579,14.1578947 13.8421053,12.8421053 13.8421053,11.4210526 C13.8421053,10 13.2631579,8.68421053 12.2631579,7.68421053 C11.7368421,7.15789474 11.0526316,6.73684211 10.3157895,6.47368421 Z" id="Shape"></path>
            </g>
        </g>
    </g>
</svg>