<?xml version="1.0" encoding="UTF-8" standalone="no"?>
<svg width="200px" height="200px" viewBox="0 0 200 200" version="1.1" xmlns="http://www.w3.org/2000/svg" xmlns:xlink="http://www.w3.org/1999/xlink">
    <!-- Generator: Sketch 43.2 (39069) - http://www.bohemiancoding.com/sketch -->
    <title>Artboard</title>
    <desc>Created with Sketch.</desc>
    <defs></defs>
    <g id="Page-1" stroke="none" stroke-width="1" fill="none" fill-rule="evenodd" stroke-linecap="round">
        <g id="Artboard" stroke-width="0.2">
            <g id="nox" transform="translate(93.000000, 100.000000) scale(-1, 1) translate(-93.000000, -100.000000) translate(33.000000, 57.000000)">
                <path d="M52.78,31.5 L52.68,25.34" id="Stroke-4" stroke="#FFDADA"></path>
                <path d="M52.57,31.51 L52.32,24.35" id="Stroke-5" stroke="#FFDADA"></path>
                <path d="M52.35,31.52 L51.79,20.7" id="Stroke-6" stroke="#FFDADA"></path>
                <path d="M52.14,31.53 L51.37,20.39" id="Stroke-7" stroke="#FFDADA"></path>
                <path d="M51.92,31.55 L50.82,18.76" id="Stroke-8" stroke="#FFDADA"></path>
                <path d="M51.71,31.57 L50.55,20.46" id="Stroke-9" stroke="#FFDADA"></path>
                <path d="M51.49,31.59 L49.71,16.87" id="Stroke-10" stroke="#FFDADA"></path>
                <path d="M51.28,31.62 L48.92,14.62" id="Stroke-11" stroke="#FFDADA"></path>
                <path d="M51.07,31.65 L47.95,11.73" id="Stroke-12" stroke="#FFDADA"></path>
                <path d="M50.85,31.69 L45.9,3.28" id="Stroke-13" stroke="#FFDADA"></path>
                <path d="M50.64,31.72 L45.89,7.01" id="Stroke-14" stroke="#FFDADA"></path>
                <path d="M50.43,31.77 L46.42,12.68" id="Stroke-15" stroke="#FFDADA"></path>
                <path d="M50.22,31.81 L46.25,14.43" id="Stroke-16" stroke="#FFDADA"></path>
                <path d="M50.01,31.86 L45.42,13.25" id="Stroke-17" stroke="#FFDADA"></path>
                <path d="M49.8,31.92 L46.43,19.19" id="Stroke-18" stroke="#FFDADA"></path>
                <path d="M49.59,31.97 L46.73,21.87" id="Stroke-19" stroke="#FFDADA"></path>
                <path d="M49.38,32.03 L41.33,5.39" id="Stroke-20" stroke="#FFDADA"></path>
                <path d="M49.18,32.1 L43.22,13.53" id="Stroke-21" stroke="#FFDADA"></path>
                <path d="M48.97,32.17 L41.94,11.5" id="Stroke-22" stroke="#FFDADA"></path>
                <path d="M48.77,32.24 L40.14,8.24" id="Stroke-23" stroke="#FFDADA"></path>
                <path d="M48.57,32.31 L40.59,11.27" id="Stroke-24" stroke="#FFDADA"></path>
                <path d="M48.37,32.39 L40.03,11.49" id="Stroke-25" stroke="#FFDADA"></path>
                <path d="M48.17,32.47 L42.56,19.1" id="Stroke-26" stroke="#FFDADA"></path>
                <path d="M47.97,32.56 L39.45,13.18" id="Stroke-27" stroke="#FFDADA"></path>
                <path d="M47.77,32.65 L41.57,19.17" id="Stroke-28" stroke="#FFDADA"></path>
                <path d="M47.58,32.74 L43.17,23.58" id="Stroke-29" stroke="#FFDADA"></path>
                <path d="M47.38,32.83 L35.62,9.46" id="Stroke-30" stroke="#FFDADA"></path>
                <path d="M47.19,32.93 L38.28,15.96" id="Stroke-31" stroke="#FFDADA"></path>
                <path d="M47,33.03 L42.6,24.99" id="Stroke-32" stroke="#FFDADA"></path>
                <path d="M46.81,33.14 L42.6,25.75" id="Stroke-33" stroke="#FFDADA"></path>
                <path d="M46.63,33.25 L36.68,16.47" id="Stroke-34" stroke="#FFDADA"></path>
                <path d="M46.44,33.36 L35.33,15.34" id="Stroke-35" stroke="#FFDADA"></path>
                <path d="M46.26,33.47 L35.92,17.33" id="Stroke-36" stroke="#FFDADA"></path>
                <path d="M46.08,33.59 L34.54,16.24" id="Stroke-37" stroke="#FFDADA"></path>
                <path d="M45.9,33.71 L34.82,17.66" id="Stroke-38" stroke="#FFDADA"></path>
                <path d="M45.72,33.84 L38.25,23.4" id="Stroke-39" stroke="#FFDADA"></path>
                <path d="M45.55,33.96 L37.3,22.86" id="Stroke-40" stroke="#FFDADA"></path>
                <path d="M45.38,34.09 L37.75,24.19" id="Stroke-41" stroke="#FFDADA"></path>
                <path d="M45.21,34.23 L37.2,24.19" id="Stroke-42" stroke="#FFDADA"></path>
                <path d="M45.04,34.36 L34.95,22.16" id="Stroke-43" stroke="#FFDADA"></path>
                <path d="M44.87,34.5 L29.81,16.9" id="Stroke-44" stroke="#FFDADA"></path>
                <path d="M44.71,34.64 L28.91,16.8" id="Stroke-45" stroke="#FFDADA"></path>
                <path d="M44.55,34.79 L34.3,23.61" id="Stroke-46" stroke="#FFDADA"></path>
                <path d="M44.39,34.94 L38.08,28.29" id="Stroke-47" stroke="#FFDADA"></path>
                <path d="M44.24,35.09 L33.14,23.79" id="Stroke-48" stroke="#FFDADA"></path>
                <path d="M44.09,35.24 L31.13,22.5" id="Stroke-49" stroke="#FFDADA"></path>
                <path d="M43.94,35.39 L32.21,24.26" id="Stroke-50" stroke="#FFDADA"></path>
                <path d="M43.79,35.55 L30.89,23.72" id="Stroke-51" stroke="#FFDADA"></path>
                <path d="M43.64,35.71 L28.8,22.56" id="Stroke-52" stroke="#FFDADA"></path>
                <path d="M43.5,35.87 L34.76,28.4" id="Stroke-53" stroke="#FFDADA"></path>
                <path d="M43.36,36.04 L36.55,30.41" id="Stroke-54" stroke="#FFDADA"></path>
                <path d="M43.23,36.21 L26.68,23.01" id="Stroke-55" stroke="#FFDADA"></path>
                <path d="M43.09,36.38 L25.26,22.65" id="Stroke-56" stroke="#FFDADA"></path>
                <path d="M42.96,36.55 L21.69,20.75" id="Stroke-57" stroke="#FFDADA"></path>
                <path d="M42.84,36.72 L22.65,22.27" id="Stroke-58" stroke="#FFDADA"></path>
                <path d="M42.71,36.9 L18.98,20.52" id="Stroke-59" stroke="#FFDADA"></path>
                <path d="M42.59,37.08 L21.64,23.14" id="Stroke-60" stroke="#FFDADA"></path>
                <path d="M42.47,37.26 L39.25,35.19" id="Stroke-61" stroke="#FFDADA"></path>
                <path d="M42.36,37.44 L32.29,31.23" id="Stroke-62" stroke="#FFDADA"></path>
                <path d="M42.25,37.63 L24.04,26.83" id="Stroke-63" stroke="#FFDADA"></path>
                <path d="M42.14,37.81 L22.59,26.67" id="Stroke-64" stroke="#FFDADA"></path>
                <path d="M42.03,38 L22.88,27.52" id="Stroke-65" stroke="#FFDADA"></path>
                <path d="M41.93,38.19 L21.12,27.27" id="Stroke-66" stroke="#FFDADA"></path>
                <path d="M41.83,38.38 L30.96,32.92" id="Stroke-67" stroke="#FFDADA"></path>
                <path d="M41.74,38.58 L30.48,33.15" id="Stroke-68" stroke="#FFDADA"></path>
                <path d="M41.65,38.77 L16.97,27.41" id="Stroke-69" stroke="#FFDADA"></path>
                <path d="M41.56,38.97 L3.57,22.26" id="Stroke-70" stroke="#FF4B61"></path>
                <path d="M41.47,39.17 L21.64,30.85" id="Stroke-71" stroke="#FFDADA"></path>
                <path d="M41.39,39.37 L32.57,35.84" id="Stroke-72" stroke="#FFDADA"></path>
                <path d="M41.31,39.57 L35.86,37.5" id="Stroke-73" stroke="#FFDADA"></path>
                <path d="M41.24,39.77 L38.57,38.81" id="Stroke-74" stroke="#FFDADA"></path>
                <path d="M41.17,39.97 L30.28,36.27" id="Stroke-75" stroke="#FFDADA"></path>
                <path d="M41.1,40.18 L22.85,34.32" id="Stroke-76" stroke="#FFDADA"></path>
                <path d="M41.03,40.38 L31.94,37.64" id="Stroke-77" stroke="#FFDADA"></path>
                <path d="M40.97,40.59 L20.93,34.91" id="Stroke-78" stroke="#FFDADA"></path>
                <path d="M40.92,40.8 L0.48,30.09" id="Stroke-79" stroke="#FF4B61"></path>
                <path d="M40.86,41.01 L19.99,35.86" id="Stroke-80" stroke="#FFDADA"></path>
                <path d="M40.81,41.22 L26.35,37.92" id="Stroke-81" stroke="#FFDADA"></path>
                <path d="M40.77,41.43 L27.88,38.72" id="Stroke-82" stroke="#FFDADA"></path>
                <path d="M40.72,41.64 L17.97,37.27" id="Stroke-83" stroke="#FFDADA"></path>
                <path d="M40.69,41.85 L17.86,37.87" id="Stroke-84" stroke="#FFDADA"></path>
                <path d="M40.65,42.07 L19.41,38.74" id="Stroke-85" stroke="#FFDADA"></path>
                <path d="M40.62,42.28 L25.27,40.15" id="Stroke-86" stroke="#FFDADA"></path>
                <path d="M40.59,42.49 L29.17,41.11" id="Stroke-87" stroke="#FFDADA"></path>
                <path d="M40.57,42.71 L28.13,41.42" id="Stroke-88" stroke="#FFDADA"></path>
                <path d="M40.55,42.92 L32.41,42.22" id="Stroke-89" stroke="#FFDADA"></path>
                <path d="M40.53,43.14 L18.75,41.63" id="Stroke-90" stroke="#FFDADA"></path>
                <path d="M40.52,43.35 L20.38,42.31" id="Stroke-91" stroke="#FFDADA"></path>
                <path d="M40.51,43.57 L20.69,42.88" id="Stroke-92" stroke="#FFDADA"></path>
                <path d="M40.5,43.78 L15.34,43.35" id="Stroke-93" stroke="#FFDADA"></path>
                <path d="M40.5,44 L25,44" id="Stroke-94" stroke="#FFDADA"></path>
                <path d="M40.5,44.22 L19.01,44.59" id="Stroke-95" stroke="#FFDADA"></path>
                <path d="M40.51,44.43 L5.03,45.66" id="Stroke-96" stroke="#FF4B61"></path>
                <path d="M40.52,44.65 L5.4,46.47" id="Stroke-97" stroke="#FF4B61"></path>
                <path d="M40.53,44.86 L18.42,46.39" id="Stroke-98" stroke="#FFDADA"></path>
                <path d="M40.55,45.08 L13.15,47.45" id="Stroke-99" stroke="#FFDADA"></path>
                <path d="M40.57,45.29 L15.2,47.93" id="Stroke-100" stroke="#FFDADA"></path>
                <path d="M40.59,45.51 L18.59,48.18" id="Stroke-101" stroke="#FFDADA"></path>
                <path d="M40.62,45.72 L33.52,46.71" id="Stroke-102" stroke="#FFDADA"></path>
                <path d="M40.65,45.93 L30.94,47.46" id="Stroke-103" stroke="#FFDADA"></path>
                <path d="M40.69,46.15 L20.16,49.73" id="Stroke-104" stroke="#FFDADA"></path>
                <path d="M40.72,46.36 L17.32,50.86" id="Stroke-105" stroke="#FFDADA"></path>
                <path d="M40.77,46.57 L13.2,52.36" id="Stroke-106" stroke="#FFDADA"></path>
                <path d="M40.81,46.78 L18.55,51.86" id="Stroke-107" stroke="#FFDADA"></path>
                <path d="M40.86,46.99 L25.49,50.78" id="Stroke-108" stroke="#FFDADA"></path>
                <path d="M40.92,47.2 L27.54,50.74" id="Stroke-109" stroke="#FFDADA"></path>
                <path d="M40.97,47.41 L17.08,54.18" id="Stroke-110" stroke="#FFDADA"></path>
                <path d="M41.03,47.62 L18.22,54.51" id="Stroke-111" stroke="#FFDADA"></path>
                <path d="M41.1,47.82 L20.95,54.29" id="Stroke-112" stroke="#FFDADA"></path>
                <path d="M41.17,48.03 L18.29,55.81" id="Stroke-113" stroke="#FFDADA"></path>
                <path d="M41.24,48.23 L19.75,55.96" id="Stroke-114" stroke="#FFDADA"></path>
                <path d="M41.31,48.43 L31.18,52.27" id="Stroke-115" stroke="#FFDADA"></path>
                <path d="M41.39,48.63 L32.26,52.28" id="Stroke-116" stroke="#FFDADA"></path>
                <path d="M41.47,48.83 L21.95,57.02" id="Stroke-117" stroke="#FFDADA"></path>
                <path d="M41.56,49.03 L19.74,58.63" id="Stroke-118" stroke="#FFDADA"></path>
                <path d="M41.65,49.23 L30.9,54.18" id="Stroke-119" stroke="#FFDADA"></path>
                <path d="M41.74,49.42 L22.67,58.61" id="Stroke-120" stroke="#FFDADA"></path>
                <path d="M41.83,49.62 L23.52,58.83" id="Stroke-121" stroke="#FFDADA"></path>
                <path d="M41.93,49.81 L25.26,58.56" id="Stroke-122" stroke="#FFDADA"></path>
                <path d="M42.03,50 L36.62,52.96" id="Stroke-123" stroke="#FFDADA"></path>
                <path d="M42.14,50.19 L20.56,62.48" id="Stroke-124" stroke="#FFDADA"></path>
                <path d="M42.25,50.37 L16.01,65.93" id="Stroke-125" stroke="#FF4B61"></path>
                <path d="M42.36,50.56 L31.15,57.47" id="Stroke-126" stroke="#FFDADA"></path>
                <path d="M42.47,50.74 L32.51,57.12" id="Stroke-127" stroke="#FFDADA"></path>
                <path d="M42.59,50.92 L25.8,62.09" id="Stroke-128" stroke="#FFDADA"></path>
                <path d="M42.71,51.1 L28.04,61.23" id="Stroke-129" stroke="#FFDADA"></path>
                <path d="M42.84,51.28 L31.05,59.72" id="Stroke-130" stroke="#FFDADA"></path>
                <path d="M42.96,51.45 L28.91,61.88" id="Stroke-131" stroke="#FFDADA"></path>
                <path d="M43.09,51.62 L25.26,65.35" id="Stroke-132" stroke="#FFDADA"></path>
                <path d="M43.23,51.79 L18.34,71.64" id="Stroke-133" stroke="#FF4B61"></path>
                <path d="M43.36,51.96 L34.24,59.5" id="Stroke-134" stroke="#FFDADA"></path>
                <path d="M43.5,52.13 L39.07,55.92" id="Stroke-135" stroke="#FFDADA"></path>
                <path d="M43.64,52.29 L35.04,59.92" id="Stroke-136" stroke="#FFDADA"></path>
                <path d="M43.79,52.45 L39,56.84" id="Stroke-137" stroke="#FFDADA"></path>
                <path d="M43.94,52.61 L36.56,59.61" id="Stroke-138" stroke="#FFDADA"></path>
                <path d="M44.09,52.76 L27.56,69" id="Stroke-139" stroke="#FFDADA"></path>
                <path d="M44.24,52.91 L27.3,70.15" id="Stroke-140" stroke="#FFDADA"></path>
                <path d="M44.39,53.06 L24.77,73.73" id="Stroke-141" stroke="#FFDADA"></path>
                <path d="M44.55,53.21 L25.96,73.48" id="Stroke-142" stroke="#FFDADA"></path>
                <path d="M44.71,53.36 L30.67,69.2" id="Stroke-143" stroke="#FFDADA"></path>
                <path d="M44.87,53.5 L30.9,69.83" id="Stroke-144" stroke="#FFDADA"></path>
                <path d="M45.04,53.64 L30.92,70.73" id="Stroke-145" stroke="#FFDADA"></path>
                <path d="M45.21,53.77 L32.42,69.8" id="Stroke-146" stroke="#FFDADA"></path>
                <path d="M45.38,53.91 L33.08,69.89" id="Stroke-147" stroke="#FFDADA"></path>
                <path d="M45.55,54.04 L32.93,71.03" id="Stroke-148" stroke="#FFDADA"></path>
                <path d="M45.72,54.16 L31.85,73.54" id="Stroke-149" stroke="#FFDADA"></path>
                <path d="M45.9,54.29 L43.34,57.99" id="Stroke-150" stroke="#FFDADA"></path>
                <path d="M46.08,54.41 L41.74,60.93" id="Stroke-151" stroke="#FFDADA"></path>
                <path d="M46.26,54.53 L36.46,69.82" id="Stroke-152" stroke="#FFDADA"></path>
                <path d="M46.44,54.64 L38.13,68.12" id="Stroke-153" stroke="#FFDADA"></path>
                <path d="M46.63,54.75 L38.04,69.23" id="Stroke-154" stroke="#FFDADA"></path>
                <path d="M46.81,54.86 L35.34,74.99" id="Stroke-155" stroke="#FFDADA"></path>
                <path d="M47,54.97 L38.12,71.2" id="Stroke-156" stroke="#FFDADA"></path>
                <path d="M47.19,55.07 L38.28,72.04" id="Stroke-157" stroke="#FFDADA"></path>
                <path d="M47.38,55.17 L43.11,63.65" id="Stroke-158" stroke="#FFDADA"></path>
                <path d="M47.58,55.26 L40.42,70.13" id="Stroke-159" stroke="#FFDADA"></path>
                <path d="M47.77,55.35 L36.13,80.64" id="Stroke-160" stroke="#FFDADA"></path>
                <path d="M47.97,55.44 L36.63,81.23" id="Stroke-161" stroke="#FFDADA"></path>
                <path d="M48.17,55.53 L41.92,70.44" id="Stroke-162" stroke="#FFDADA"></path>
                <path d="M48.37,55.61 L42.99,69.08" id="Stroke-163" stroke="#FFDADA"></path>
                <path d="M48.57,55.69 L47.21,59.27" id="Stroke-164" stroke="#FFDADA"></path>
                <path d="M48.77,55.76 L47.7,58.74" id="Stroke-165" stroke="#FFDADA"></path>
                <path d="M48.97,55.83 L44.73,68.3" id="Stroke-166" stroke="#FFDADA"></path>
                <path d="M49.18,55.9 L43.83,72.56" id="Stroke-167" stroke="#FFDADA"></path>
                <path d="M49.38,55.97 L44.42,72.4" id="Stroke-168" stroke="#FFDADA"></path>
                <path d="M49.59,56.03 L45.46,70.62" id="Stroke-169" stroke="#FFDADA"></path>
                <path d="M49.8,56.08 L43.27,80.73" id="Stroke-170" stroke="#FFDADA"></path>
                <path d="M50.01,56.14 L47.02,68.27" id="Stroke-171" stroke="#FFDADA"></path>
                <path d="M50.22,56.19 L46.99,70.32" id="Stroke-172" stroke="#FFDADA"></path>
                <path d="M50.43,56.23 L47.31,71.08" id="Stroke-173" stroke="#FFDADA"></path>
                <path d="M50.64,56.28 L46.39,78.37" id="Stroke-174" stroke="#FFDADA"></path>
                <path d="M50.85,56.31 L47.05,78.15" id="Stroke-175" stroke="#FFDADA"></path>
                <path d="M51.07,56.35 L48.05,75.61" id="Stroke-176" stroke="#FFDADA"></path>
                <path d="M51.28,56.38 L48.04,79.66" id="Stroke-177" stroke="#FFDADA"></path>
                <path d="M51.49,56.41 L49.95,69.15" id="Stroke-178" stroke="#FFDADA"></path>
                <path d="M51.71,56.43 L50.24,70.52" id="Stroke-179" stroke="#FFDADA"></path>
                <path d="M51.92,56.45 L50.21,76.21" id="Stroke-180" stroke="#FFDADA"></path>
                <path d="M52.14,56.47 L50.93,73.93" id="Stroke-181" stroke="#FFDADA"></path>
                <path d="M52.35,56.48 L51.36,75.62" id="Stroke-182" stroke="#FFDADA"></path>
                <path d="M52.57,56.49 L51.75,80.31" id="Stroke-183" stroke="#FFDADA"></path>
                <path d="M52.78,56.5 L52.52,71.66" id="Stroke-184" stroke="#FFDADA"></path>
                <path d="M53,56.5 L53,67" id="Stroke-185" stroke="#FFDADA"></path>
                <path d="M53.22,56.5 L53.33,63" id="Stroke-186" stroke="#FFDADA"></path>
                <path d="M53.43,56.49 L54.21,78.98" id="Stroke-187" stroke="#FFDADA"></path>
                <path d="M53.65,56.48 L55.17,85.94" id="Stroke-188" stroke="#FF4B61"></path>
                <path d="M53.86,56.47 L55.07,73.93" id="Stroke-189" stroke="#FFDADA"></path>
                <path d="M54.08,56.45 L55.67,74.88" id="Stroke-190" stroke="#FFDADA"></path>
                <path d="M54.29,56.43 L56.76,80.14" id="Stroke-191" stroke="#FFDADA"></path>
                <path d="M54.51,56.41 L56.29,71.13" id="Stroke-192" stroke="#FFDADA"></path>
                <path d="M54.72,56.38 L56.53,69.42" id="Stroke-193" stroke="#FFDADA"></path>
                <path d="M54.93,56.35 L59.45,85.16" id="Stroke-194" stroke="#FFDADA"></path>
                <path d="M55.15,56.31 L59.47,81.11" id="Stroke-195" stroke="#FFDADA"></path>
                <path d="M55.36,56.28 L57.97,69.86" id="Stroke-196" stroke="#FFDADA"></path>
                <path d="M55.57,56.23 L58.14,68.47" id="Stroke-197" stroke="#FFDADA"></path>
                <path d="M55.78,56.19 L59.75,73.57" id="Stroke-198" stroke="#FFDADA"></path>
                <path d="M55.99,56.14 L58.34,65.68" id="Stroke-199" stroke="#FFDADA"></path>
                <path d="M56.2,56.08 L57.95,62.69" id="Stroke-200" stroke="#FFDADA"></path>
                <path d="M56.41,56.03 L61.45,73.83" id="Stroke-201" stroke="#FFDADA"></path>
                <path d="M56.62,55.97 L61.29,71.44" id="Stroke-202" stroke="#FFDADA"></path>
                <path d="M56.82,55.9 L61.66,70.98" id="Stroke-203" stroke="#FFDADA"></path>
                <path d="M57.03,55.83 L63.2,73.98" id="Stroke-204" stroke="#FFDADA"></path>
                <path d="M57.23,55.76 L60.9,65.96" id="Stroke-205" stroke="#FFDADA"></path>
                <path d="M57.43,55.69 L60.68,64.26" id="Stroke-206" stroke="#FFDADA"></path>
                <path d="M57.63,55.61 L62.27,67.22" id="Stroke-207" stroke="#FFDADA"></path>
                <path d="M57.83,55.53 L66.79,76.89" id="Stroke-208" stroke="#FFDADA"></path>
                <path d="M58.03,55.44 L63.87,68.72" id="Stroke-209" stroke="#FFDADA"></path>
                <path d="M58.23,55.35 L68.06,76.7" id="Stroke-210" stroke="#FFDADA"></path>
                <path d="M58.42,55.26 L67.17,73.43" id="Stroke-211" stroke="#FFDADA"></path>
                <path d="M58.62,55.17 L67.08,71.99" id="Stroke-212" stroke="#FFDADA"></path>
                <path d="M58.81,55.07 L64.15,65.25" id="Stroke-213" stroke="#FFDADA"></path>
                <path d="M59,54.97 L64.36,64.76" id="Stroke-214" stroke="#FFDADA"></path>
                <path d="M59.19,54.86 L66.37,67.46" id="Stroke-215" stroke="#FFDADA"></path>
                <path d="M59.37,54.75 L69.66,72.1" id="Stroke-216" stroke="#FFDADA"></path>
                <path d="M59.56,54.64 L66.29,65.57" id="Stroke-217" stroke="#FFDADA"></path>
                <path d="M59.74,54.53 L68.1,67.58" id="Stroke-218" stroke="#FFDADA"></path>
                <path d="M59.92,54.41 L71.64,72.03" id="Stroke-219" stroke="#FFDADA"></path>
                <path d="M60.1,54.29 L68.34,66.22" id="Stroke-220" stroke="#FFDADA"></path>
                <path d="M60.28,54.16 L68.72,65.95" id="Stroke-221" stroke="#FFDADA"></path>
                <path d="M60.45,54.04 L72.67,70.5" id="Stroke-222" stroke="#FFDADA"></path>
                <path d="M60.62,53.91 L69.87,65.93" id="Stroke-223" stroke="#FFDADA"></path>
                <path d="M60.79,53.77 L72.33,68.24" id="Stroke-224" stroke="#FFDADA"></path>
                <path d="M60.96,53.64 L71.47,66.36" id="Stroke-225" stroke="#FFDADA"></path>
                <path d="M61.13,53.5 L67.74,61.22" id="Stroke-226" stroke="#FFDADA"></path>
                <path d="M61.29,53.36 L66.93,59.72" id="Stroke-227" stroke="#FFDADA"></path>
                <path d="M61.45,53.21 L65.84,58" id="Stroke-228" stroke="#FFDADA"></path>
                <path d="M61.61,53.06 L67.69,59.47" id="Stroke-229" stroke="#FFDADA"></path>
                <path d="M61.76,52.91 L75.9,67.3" id="Stroke-230" stroke="#FFDADA"></path>
                <path d="M61.91,52.76 L76.77,67.37" id="Stroke-231" stroke="#FFDADA"></path>
                <path d="M62.06,52.61 L81.04,70.62" id="Stroke-232" stroke="#FFDADA"></path>
                <path d="M62.21,52.45 L78.3,67.21" id="Stroke-233" stroke="#FFDADA"></path>
                <path d="M62.36,52.29 L71.71,60.58" id="Stroke-234" stroke="#FFDADA"></path>
                <path d="M62.5,52.13 L71.49,59.82" id="Stroke-235" stroke="#FFDADA"></path>
                <path d="M62.64,51.96 L77.93,64.59" id="Stroke-236" stroke="#FFDADA"></path>
                <path d="M62.77,51.79 L78.28,64.16" id="Stroke-237" stroke="#FFDADA"></path>
                <path d="M62.91,51.62 L80.21,64.94" id="Stroke-238" stroke="#FFDADA"></path>
                <path d="M63.04,51.45 L81.37,65.06" id="Stroke-239" stroke="#FFDADA"></path>
                <path d="M63.16,51.28 L81.19,64.18" id="Stroke-240" stroke="#FFDADA"></path>
                <path d="M63.29,51.1 L79.06,61.99" id="Stroke-241" stroke="#FFDADA"></path>
                <path d="M63.41,50.92 L89.92,68.55" id="Stroke-242" stroke="#FF4B61"></path>
                <path d="M63.53,50.74 L78.54,60.36" id="Stroke-243" stroke="#FFDADA"></path>
                <path d="M63.64,50.56 L83.36,62.71" id="Stroke-244" stroke="#FFDADA"></path>
                <path d="M63.75,50.37 L84.83,62.87" id="Stroke-245" stroke="#FFDADA"></path>
                <path d="M63.86,50.19 L93.84,67.27" id="Stroke-246" stroke="#FF4B61"></path>
                <path d="M63.97,50 L91.6,65.12" id="Stroke-247" stroke="#FF4B61"></path>
                <path d="M64.07,49.81 L76.61,56.39" id="Stroke-248" stroke="#FFDADA"></path>
                <path d="M64.17,49.62 L75.33,55.23" id="Stroke-249" stroke="#FFDADA"></path>
                <path d="M64.26,49.42 L83.33,58.61" id="Stroke-250" stroke="#FFDADA"></path>
                <path d="M64.35,49.23 L82.67,57.66" id="Stroke-251" stroke="#FFDADA"></path>
                <path d="M64.44,49.03 L91.14,60.77" id="Stroke-252" stroke="#FFDADA"></path>
                <path d="M64.53,48.83 L95.11,61.66" id="Stroke-253" stroke="#FF4B61"></path>
                <path d="M64.61,48.63 L91.7,59.45" id="Stroke-254" stroke="#FFDADA"></path>
                <path d="M64.69,48.43 L79.8,54.17" id="Stroke-255" stroke="#FFDADA"></path>
                <path d="M64.76,48.23 L75.9,52.23" id="Stroke-256" stroke="#FFDADA"></path>
                <path d="M64.83,48.03 L105.07,61.72" id="Stroke-257" stroke="#FF4B61"></path>
                <path d="M64.9,47.82 L119.01,65.2" id="Stroke-258" stroke="#FF4B61"></path>
                <path d="M64.97,47.62 L83.31,53.16" id="Stroke-259" stroke="#FFDADA"></path>
                <path d="M65.03,47.41 L90.52,54.63" id="Stroke-260" stroke="#FFDADA"></path>
                <path d="M65.08,47.2 L89.09,53.56" id="Stroke-261" stroke="#FFDADA"></path>
                <path d="M65.14,46.99 L69.83,48.15" id="Stroke-262" stroke="#FFDADA"></path>
                <path d="M65.19,46.78 L72.17,48.38" id="Stroke-263" stroke="#FFDADA"></path>
                <path d="M65.23,46.57 L70.94,47.77" id="Stroke-264" stroke="#FFDADA"></path>
                <path d="M65.28,46.36 L84.75,50.1" id="Stroke-265" stroke="#FFDADA"></path>
                <path d="M65.31,46.15 L79.27,48.58" id="Stroke-266" stroke="#FFDADA"></path>
                <path d="M65.35,45.93 L98.45,51.12" id="Stroke-267" stroke="#FF4B61"></path>
                <path d="M65.38,45.72 L92.62,49.51" id="Stroke-268" stroke="#FFDADA"></path>
                <path d="M65.41,45.51 L95.69,49.18" id="Stroke-269" stroke="#FF4B61"></path>
                <path d="M65.43,45.29 L87.48,47.58" id="Stroke-270" stroke="#FFDADA"></path>
                <path d="M65.45,45.08 L93.18,47.48" id="Stroke-271" stroke="#FFDADA"></path>
                <path d="M65.47,44.86 L89.91,46.55" id="Stroke-272" stroke="#FFDADA"></path>
                <path d="M65.48,44.65 L81.96,45.5" id="Stroke-273" stroke="#FFDADA"></path>
                <path d="M65.49,44.43 L83.32,45.05" id="Stroke-274" stroke="#FFDADA"></path>
                <path d="M65.5,44.22 L83.66,44.53" id="Stroke-275" stroke="#FFDADA"></path>
                <path d="M65.5,44 L79,44" id="Stroke-276" stroke="#FFDADA"></path>
                <path d="M65.5,43.78 L86.33,43.42" id="Stroke-277" stroke="#FFDADA"></path>
                <path d="M65.49,43.57 L76.65,43.18" id="Stroke-278" stroke="#FFDADA"></path>
                <path d="M65.48,43.35 L66.98,43.28" id="Stroke-279" stroke="#FFDADA"></path>
                <path d="M65.47,43.14 L78.61,42.23" id="Stroke-280" stroke="#FFDADA"></path>
                <path d="M65.45,42.92 L69.27,42.59" id="Stroke-281" stroke="#FFDADA"></path>
                <path d="M65.43,42.71 L71.9,42.04" id="Stroke-282" stroke="#FFDADA"></path>
                <path d="M65.41,42.49 L68.88,42.07" id="Stroke-283" stroke="#FFDADA"></path>
                <path d="M65.38,42.28 L81.72,40.01" id="Stroke-284" stroke="#FFDADA"></path>
                <path d="M65.35,42.07 L83.63,39.2" id="Stroke-285" stroke="#FFDADA"></path>
                <path d="M65.31,41.85 L76.97,39.82" id="Stroke-286" stroke="#FFDADA"></path>
                <path d="M65.28,41.64 L70.02,40.73" id="Stroke-287" stroke="#FFDADA"></path>
                <path d="M65.23,41.43 L88.23,36.6" id="Stroke-288" stroke="#FFDADA"></path>
                <path d="M65.19,41.22 L82.9,37.18" id="Stroke-289" stroke="#FFDADA"></path>
                <path d="M65.14,41.01 L79.54,37.46" id="Stroke-290" stroke="#FFDADA"></path>
                <path d="M65.08,40.8 L70.72,39.31" id="Stroke-291" stroke="#FFDADA"></path>
                <path d="M65.03,40.59 L89.24,33.73" id="Stroke-292" stroke="#FFDADA"></path>
                <path d="M64.97,40.38 L88.1,33.39" id="Stroke-293" stroke="#FFDADA"></path>
                <path d="M64.9,40.18 L94.26,30.75" id="Stroke-294" stroke="#FF4B61"></path>
                <path d="M64.83,39.97 L80.14,34.77" id="Stroke-295" stroke="#FFDADA"></path>
                <path d="M64.76,39.77 L82.17,33.51" id="Stroke-296" stroke="#FFDADA"></path>
                <path d="M64.69,39.57 L76.06,35.25" id="Stroke-297" stroke="#FFDADA"></path>
                <path d="M64.61,39.37 L74.05,35.6" id="Stroke-298" stroke="#FFDADA"></path>
                <path d="M64.53,39.17 L72.06,36.01" id="Stroke-299" stroke="#FFDADA"></path>
                <path d="M64.44,38.97 L73.75,34.88" id="Stroke-300" stroke="#FFDADA"></path>
                <path d="M64.35,38.77 L85.09,29.22" id="Stroke-301" stroke="#FFDADA"></path>
                <path d="M64.26,38.58 L82.43,29.83" id="Stroke-302" stroke="#FFDADA"></path>
                <path d="M64.17,38.38 L81.29,29.77" id="Stroke-303" stroke="#FFDADA"></path>
                <path d="M64.07,38.19 L76.32,31.76" id="Stroke-304" stroke="#FFDADA"></path>
                <path d="M63.97,38 L81.66,28.32" id="Stroke-305" stroke="#FFDADA"></path>
                <path d="M63.86,37.81 L85.73,25.35" id="Stroke-306" stroke="#FFDADA"></path>
                <path d="M63.75,37.63 L87.41,23.6" id="Stroke-307" stroke="#FFDADA"></path>
                <path d="M63.64,37.44 L82.23,25.98" id="Stroke-308" stroke="#FFDADA"></path>
                <path d="M63.53,37.26 L85.84,22.97" id="Stroke-309" stroke="#FFDADA"></path>
                <path d="M63.41,37.08 L78.26,27.2" id="Stroke-310" stroke="#FFDADA"></path>
                <path d="M63.29,36.9 L76.59,27.72" id="Stroke-311" stroke="#FFDADA"></path>
                <path d="M63.16,36.72 L76.85,26.92" id="Stroke-312" stroke="#FFDADA"></path>
                <path d="M63.04,36.55 L73.61,28.7" id="Stroke-313" stroke="#FFDADA"></path>
                <path d="M62.91,36.38 L79.94,23.26" id="Stroke-314" stroke="#FFDADA"></path>
                <path d="M62.77,36.21 L79.06,23.22" id="Stroke-315" stroke="#FFDADA"></path>
                <path d="M62.64,36.04 L71.76,28.5" id="Stroke-316" stroke="#FFDADA"></path>
                <path d="M62.5,35.87 L73.26,26.66" id="Stroke-317" stroke="#FFDADA"></path>
                <path d="M62.36,35.71 L78.7,21.23" id="Stroke-318" stroke="#FFDADA"></path>
                <path d="M62.21,35.55 L82.48,16.96" id="Stroke-319" stroke="#FFDADA"></path>
                <path d="M62.06,35.39 L83.7,14.85" id="Stroke-320" stroke="#FF4B61"></path>
                <path d="M61.91,35.24 L70.83,26.48" id="Stroke-321" stroke="#FFDADA"></path>
                <path d="M61.76,35.09 L78.94,17.61" id="Stroke-322" stroke="#FFDADA"></path>
                <path d="M61.61,34.94 L72.28,23.69" id="Stroke-323" stroke="#FFDADA"></path>
                <path d="M61.45,34.79 L73.05,22.14" id="Stroke-324" stroke="#FFDADA"></path>
                <path d="M61.29,34.64 L72.01,22.54" id="Stroke-325" stroke="#FFDADA"></path>
                <path d="M61.13,34.5 L67.3,27.28" id="Stroke-326" stroke="#FFDADA"></path>
                <path d="M60.96,34.36 L79.11,12.39" id="Stroke-327" stroke="#FFDADA"></path>
                <path d="M60.79,34.23 L72.74,19.24" id="Stroke-328" stroke="#FFDADA"></path>
                <path d="M60.62,34.09 L71.91,19.43" id="Stroke-329" stroke="#FFDADA"></path>
                <path d="M60.45,33.96 L68.1,23.66" id="Stroke-330" stroke="#FFDADA"></path>
                <path d="M60.28,33.84 L71.05,18.8" id="Stroke-331" stroke="#FFDADA"></path>
                <path d="M60.1,33.71 L69.28,20.41" id="Stroke-332" stroke="#FFDADA"></path>
                <path d="M59.92,33.59 L65.92,24.57" id="Stroke-333" stroke="#FFDADA"></path>
                <path d="M59.74,33.47 L69.36,18.46" id="Stroke-334" stroke="#FFDADA"></path>
                <path d="M59.56,33.36 L78.36,2.85" id="Stroke-335" stroke="#FF4B61"></path>
                <path d="M59.37,33.25 L76.29,4.72" id="Stroke-336" stroke="#FF4B61"></path>
                <path d="M59.19,33.14 L72.14,10.4" id="Stroke-337" stroke="#FFDADA"></path>
                <path d="M59,33.03 L69.16,14.46" id="Stroke-338" stroke="#FFDADA"></path>
                <path d="M58.81,32.93 L71.9,7.99" id="Stroke-339" stroke="#FFDADA"></path>
                <path d="M58.62,32.83 L66.78,16.6" id="Stroke-340" stroke="#FFDADA"></path>
                <path d="M58.42,32.74 L72.24,4.06" id="Stroke-341" stroke="#FF4B61"></path>
                <path d="M58.23,32.65 L70.71,5.55" id="Stroke-342" stroke="#FF4B61"></path>
                <path d="M58.03,32.56 L66.01,14.4" id="Stroke-343" stroke="#FFDADA"></path>
                <path d="M57.83,32.47 L69.11,5.57" id="Stroke-344" stroke="#FFDADA"></path>
                <path d="M57.63,32.39 L67.83,6.85" id="Stroke-345" stroke="#FFDADA"></path>
                <path d="M57.43,32.31 L63.52,16.26" id="Stroke-346" stroke="#FFDADA"></path>
                <path d="M57.23,32.24 L62.81,16.71" id="Stroke-347" stroke="#FFDADA"></path>
                <path d="M57.03,32.17 L67.71,0.77" id="Stroke-348" stroke="#FF4B61"></path>
                <path d="M56.82,32.1 L63.9,10.04" id="Stroke-349" stroke="#FFDADA"></path>
                <path d="M56.62,32.03 L62.74,11.77" id="Stroke-350" stroke="#FFDADA"></path>
                <path d="M56.41,31.97 L63.09,8.4" id="Stroke-351" stroke="#FFDADA"></path>
                <path d="M56.2,31.92 L61.28,12.74" id="Stroke-352" stroke="#FFDADA"></path>
                <path d="M55.99,31.86 L59.62,17.14" id="Stroke-353" stroke="#FFDADA"></path>
                <path d="M55.78,31.81 L59.08,17.35" id="Stroke-354" stroke="#FFDADA"></path>
                <path d="M55.57,31.77 L60.33,9.1" id="Stroke-355" stroke="#FFDADA"></path>
                <path d="M55.36,31.72 L59.04,12.58" id="Stroke-356" stroke="#FFDADA"></path>
                <path d="M55.15,31.69 L58.38,13.13" id="Stroke-357" stroke="#FFDADA"></path>
                <path d="M54.93,31.65 L57.07,17.98" id="Stroke-358" stroke="#FFDADA"></path>
                <path d="M54.72,31.62 L56.76,16.93" id="Stroke-359" stroke="#FFDADA"></path>
                <path d="M54.51,31.59 L55.53,23.15" id="Stroke-360" stroke="#FFDADA"></path>
                <path d="M54.29,31.57 L55.27,22.12" id="Stroke-361" stroke="#FFDADA"></path>
                <path d="M54.08,31.55 L55.07,20.09" id="Stroke-362" stroke="#FFDADA"></path>
                <path d="M53.86,31.53 L54.72,19.06" id="Stroke-363" stroke="#FFDADA"></path>
                <path d="M53.65,31.52 L54.21,20.7" id="Stroke-364" stroke="#FFDADA"></path>
                <path d="M53.43,31.51 L54.24,8.02" id="Stroke-365" stroke="#FFDADA"></path>
                <path d="M53.22,31.5 L53.46,17.34" id="Stroke-366" stroke="#FFDADA"></path>
                <path d="M53,31.5 L53,14.67" id="Stroke-367" stroke="#FFDADA"></path>
            </g>
        </g>
    </g>
</svg>