<?xml version="1.0" encoding="UTF-8" standalone="no"?>
<svg width="300px" height="300px" viewBox="0 0 300 300" version="1.1" xmlns="http://www.w3.org/2000/svg" xmlns:xlink="http://www.w3.org/1999/xlink">
    <!-- Generator: Sketch 43.2 (39069) - http://www.bohemiancoding.com/sketch -->
    <title>Artboardamrumer</title>
    <desc>Created with Sketch.</desc>
    <defs></defs>
    <g id="Page-1" stroke="none" stroke-width="1" fill="none" fill-rule="evenodd" stroke-linecap="round">
        <g id="Artboard">
            <g id="sec" transform="translate(153.500000, 153.000000) scale(-1, 1) translate(-153.500000, -153.000000) translate(44.000000, 63.000000)">
                <path d="M112.525036,34.2210526 L112.194173,15.2736842" id="Stroke-4" stroke="#FFDADA"></path>
                <path d="M111.611223,34.2421053 L111.206835,22.6684211" id="Stroke-5" stroke="#FFDADA"></path>
                <path d="M110.69741,34.2842105 L109.710072,15.3631579" id="Stroke-6" stroke="#FFDADA"></path>
                <path d="M109.783597,34.3368421 L108.36036,13.8631579" id="Stroke-7" stroke="#FFDADA"></path>
                <path d="M108.875036,34.4105263 L107.320504,16.5842105" id="Stroke-8" stroke="#FFDADA"></path>
                <path d="M107.966475,34.4947368 L105.881511,14.6052632" id="Stroke-9" stroke="#FFDADA"></path>
                <path d="M107.057914,34.6 L103.86482,8.47894737" id="Stroke-10" stroke="#FFDADA"></path>
                <path d="M106.149353,34.7210526 L101.774604,3.44736842" id="Stroke-11" stroke="#FFDADA"></path>
                <path d="M105.246043,34.8526316 L101.065612,8.34210526" id="Stroke-12" stroke="#FFDADA"></path>
                <path d="M104.342734,35.0052632 L98.523741,1.83157895" id="Stroke-13" stroke="#FFDADA"></path>
                <path d="M103.444676,35.1736842 L97.1477698,2.62105263" id="Stroke-14" stroke="#FFDADA"></path>
                <path d="M102.551871,35.3526316 L96.8851799,8.57894737" id="Stroke-15" stroke="#FFDADA"></path>
                <path d="M101.659065,35.5526316 L94.117482,2.72631579" id="Stroke-16" stroke="#FFDADA"></path>
                <path d="M100.766259,35.7631579 L94.1805036,9.20526316" id="Stroke-17" stroke="#FFDADA"></path>
                <path d="M99.8839568,35.9947368 L93.5135252,12.0947368" id="Stroke-18" stroke="#FFDADA"></path>
                <path d="M99.0016547,36.2368421 L93.6605755,17.5157895" id="Stroke-19" stroke="#FFDADA"></path>
                <path d="M98.1246043,36.5 L87.2533813,0.752631579" id="Stroke-20" stroke="#FFDADA"></path>
                <path d="M97.2528058,36.7736842 L87.0590647,5.22631579" id="Stroke-21" stroke="#FFDADA"></path>
                <path d="M96.386259,37.0631579 L85.2997122,4.70526316" id="Stroke-22" stroke="#FFDADA"></path>
                <path d="M95.524964,37.3684211 L82.6265468,1.74736842" id="Stroke-23" stroke="#FFDADA"></path>
                <path d="M94.6689209,37.6894737 L80.7779137,1.31052632" id="Stroke-24" stroke="#FFDADA"></path>
                <path d="M93.8181295,38.0210526 L83.6138849,12.6368421" id="Stroke-25" stroke="#FFDADA"></path>
                <path d="M92.9725899,38.3736842 L82.3271942,13.1684211" id="Stroke-26" stroke="#FFDADA"></path>
                <path d="M92.1323022,38.7368421 L82.9731655,18.0526316" id="Stroke-27" stroke="#FFDADA"></path>
                <path d="M91.302518,39.1157895 L79.3494245,13.3421053" id="Stroke-28" stroke="#FFDADA"></path>
                <path d="M90.4779856,39.5105263 L78.3043165,14.4210526" id="Stroke-29" stroke="#FFDADA"></path>
                <path d="M89.658705,39.9157895 L75.8622302,12.7" id="Stroke-30" stroke="#FFDADA"></path>
                <path d="M88.8446763,40.3368421 L76.3033813,16.6210526" id="Stroke-31" stroke="#FFDADA"></path>
                <path d="M88.0411511,40.7736842 L82.2011511,30.1789474" id="Stroke-32" stroke="#FFDADA"></path>
                <path d="M87.2481295,41.2263158 L82.0068345,32.1" id="Stroke-33" stroke="#FFDADA"></path>
                <path d="M86.4551079,41.6894737 L72.9684892,19.1105263" id="Stroke-34" stroke="#FFDADA"></path>
                <path d="M85.6778417,42.1631579 L74.8486331,24.7421053" id="Stroke-35" stroke="#FFDADA"></path>
                <path d="M84.9058273,42.6578947 L74.3497122,26.3052632" id="Stroke-36" stroke="#FFDADA"></path>
                <path d="M84.1443165,43.1578947 L71.5452518,24.3789474" id="Stroke-37" stroke="#FFDADA"></path>
                <path d="M83.3880576,43.6789474 L66.8606475,19.9368421" id="Stroke-38" stroke="#FFDADA"></path>
                <path d="M82.6423022,44.2105263 L68.7880576,25.0210526" id="Stroke-39" stroke="#FFDADA"></path>
                <path d="M81.9070504,44.7526316 L67.0864748,24.9684211" id="Stroke-40" stroke="#FFDADA"></path>
                <path d="M81.1823022,45.3105263 L66.6663309,26.6157895" id="Stroke-41" stroke="#FFDADA"></path>
                <path d="M80.4628058,45.8789474 L67.6064029,29.9" id="Stroke-42" stroke="#FFDADA"></path>
                <path d="M79.7590647,46.4578947 L65.9520863,29.9" id="Stroke-43" stroke="#FFDADA"></path>
                <path d="M79.0605755,47.0526316 L63.2474101,28.7473684" id="Stroke-44" stroke="#FFDADA"></path>
                <path d="M78.3778417,47.6578947 L52.7805755,19.0526316" id="Stroke-45" stroke="#FFDADA"></path>
                <path d="M77.7003597,48.2736842 L58.4052518,27.4473684" id="Stroke-46" stroke="#FFDADA"></path>
                <path d="M77.0386331,48.9052632 L63.9301439,35.2473684" id="Stroke-47" stroke="#FFDADA"></path>
                <path d="M76.3821583,49.5473684 L64.1559712,37.2368421" id="Stroke-48" stroke="#FFDADA"></path>
                <path d="M75.7414388,50.1947368 L54.6292086,29.6736842" id="Stroke-49" stroke="#FFDADA"></path>
                <path d="M75.111223,50.8578947 L59.0144604,35.7473684" id="Stroke-50" stroke="#FFDADA"></path>
                <path d="M74.4915108,51.5315789 L50.7323741,29.9947368" id="Stroke-51" stroke="#FFDADA"></path>
                <path d="M73.8823022,52.2210526 L49.7555396,31.1" id="Stroke-52" stroke="#FFDADA"></path>
                <path d="M73.2888489,52.9157895 L57.6332374,39.6842105" id="Stroke-53" stroke="#FFDADA"></path>
                <path d="M72.7058993,53.6210526 L60.0805755,43.3210526" id="Stroke-54" stroke="#FFDADA"></path>
                <path d="M72.1334532,54.3368421 L55.2016547,41.0052632" id="Stroke-55" stroke="#FFDADA"></path>
                <path d="M71.5767626,55.0578947 L52.7385612,40.7578947" id="Stroke-56" stroke="#FFDADA"></path>
                <path d="M71.0305755,55.7947368 L46.8617986,38.1" id="Stroke-57" stroke="#FFDADA"></path>
                <path d="M70.5001439,56.5368421 L45.1654676,38.6631579" id="Stroke-58" stroke="#FFDADA"></path>
                <path d="M69.9802158,57.2947368 L28.2599281,28.9263158" id="Stroke-59" stroke="#FFDADA"></path>
                <path d="M69.4707914,58.0578947 L33.8583453,34.7368421" id="Stroke-60" stroke="#FFDADA"></path>
                <path d="M68.9771223,58.8263158 L53.862446,49.3" id="Stroke-61" stroke="#FFDADA"></path>
                <path d="M68.4992086,59.6052632 L48.2745324,47.3526316" id="Stroke-62" stroke="#FFDADA"></path>
                <path d="M68.0317986,60.3947368 L45.3282734,47.1684211" id="Stroke-63" stroke="#FFDADA"></path>
                <path d="M67.5801439,61.1894737 L45.1129496,48.6210526" id="Stroke-64" stroke="#FFDADA"></path>
                <path d="M67.1442446,61.9947368 L32.8815108,43.6052632" id="Stroke-65" stroke="#FFDADA"></path>
                <path d="M66.7188489,62.8052632 L31.6788489,44.7789474" id="Stroke-66" stroke="#FFDADA"></path>
                <path d="M66.3092086,63.6263158 L49.3406475,55.2631579" id="Stroke-67" stroke="#FFDADA"></path>
                <path d="M65.9100719,64.4473684 L46.4258993,55.2684211" id="Stroke-68" stroke="#FFDADA"></path>
                <path d="M65.5319424,65.2842105 L21.9315108,45.6631579" id="Stroke-69" stroke="#FFDADA"></path>
                <path d="M65.1643165,66.1210526 L23.1604317,48.0947368" id="Stroke-70" stroke="#FFDADA"></path>
                <path d="M64.812446,66.9631579 L26.878705,51.4631579" id="Stroke-71" stroke="#FFDADA"></path>
                <path d="M64.4710791,67.8157895 L48.804964,61.7263158" id="Stroke-72" stroke="#FFDADA"></path>
                <path d="M64.1507194,68.6736842 L52.3184173,64.3157895" id="Stroke-73" stroke="#FFDADA"></path>
                <path d="M63.8408633,69.5368421 L55.4117266,66.5947368" id="Stroke-74" stroke="#FFDADA"></path>
                <path d="M63.5467626,70.4052632 L51.073741,66.2947368" id="Stroke-75" stroke="#FFDADA"></path>
                <path d="M63.2684173,71.2789474 L33.6692806,62.0947368" id="Stroke-76" stroke="#FFDADA"></path>
                <path d="M63.0058273,72.1526316 L49.8973381,68.3368421" id="Stroke-77" stroke="#FFDADA"></path>
                <path d="M62.7589928,73.0368421 L20.6973381,61.5789474" id="Stroke-78" stroke="#FFDADA"></path>
                <path d="M62.5279137,73.9210526 L15.6923741,62.0368421" id="Stroke-79" stroke="#FFDADA"></path>
                <path d="M62.3125899,74.8105263 L31.1221583,67.4736842" id="Stroke-80" stroke="#FFDADA"></path>
                <path d="M62.1077698,75.7052632 L46.2000719,72.2526316" id="Stroke-81" stroke="#FFDADA"></path>
                <path d="M61.9239568,76.6 L45.4385612,73.3263158" id="Stroke-82" stroke="#FFDADA"></path>
                <path d="M61.7558993,77.5 L37.9810072,73.2052632" id="Stroke-83" stroke="#FFDADA"></path>
                <path d="M61.5983453,78.4052632 L35.6807194,74.1842105" id="Stroke-84" stroke="#FFDADA"></path>
                <path d="M61.4617986,79.3105263 L30.2766187,74.7894737" id="Stroke-85" stroke="#FFDADA"></path>
                <path d="M61.3410072,80.2157895 L19.657482,74.9210526" id="Stroke-86" stroke="#FFDADA"></path>
                <path d="M61.2307194,81.1263158 L41.3946763,78.9578947" id="Stroke-87" stroke="#FFDADA"></path>
                <path d="M61.1414388,82.0421053 L37.6028777,79.8789474" id="Stroke-88" stroke="#FFDADA"></path>
                <path d="M61.0626619,82.9526316 L46.9248201,81.9" id="Stroke-89" stroke="#FFDADA"></path>
                <path d="M61.0048921,83.8684211 L43.7002158,82.8842105" id="Stroke-90" stroke="#FFDADA"></path>
                <path d="M60.9628777,84.7789474 L36.8203597,83.8315789" id="Stroke-91" stroke="#FFDADA"></path>
                <path d="M60.9313669,85.6947368 L21.5533813,84.8368421" id="Stroke-92" stroke="#FFDADA"></path>
                <path d="M60.9208633,86.6105263 L21.5323741,86.4421053" id="Stroke-93" stroke="#FFDADA"></path>
                <path d="M60.9261151,87.5315789 L12.6148201,88.1631579" id="Stroke-94" stroke="#FFDADA"></path>
                <path d="M60.9471223,88.4473684 L33.6482734,89.2789474" id="Stroke-95" stroke="#FFDADA"></path>
                <path d="M60.9786331,89.3578947 L19.5419424,91.3473684" id="Stroke-96" stroke="#FFDADA"></path>
                <path d="M61.0311511,90.2736842 L0.241582734,94.2578947" id="Stroke-97" stroke="#FF4B61" stroke-width="0.5"></path>
                <path d="M61.0994245,91.1894737 L12.4257554,95.2315789" id="Stroke-98" stroke="#FFDADA"></path>
                <path d="M61.1834532,92.1 L32.4456115,94.9947368" id="Stroke-99" stroke="#FFDADA"></path>
                <path d="M61.2832374,93.0105263 L32.0779856,96.4684211" id="Stroke-100" stroke="#FFDADA"></path>
                <path d="M61.398777,93.9210526 L23.9271942,99.0157895" id="Stroke-101" stroke="#FFDADA"></path>
                <path d="M61.5300719,94.8263158 L21.038705,101.052632" id="Stroke-102" stroke="#FFDADA"></path>
                <path d="M61.6771223,95.7315789 L44.0730935,98.7526316" id="Stroke-103" stroke="#FFDADA"></path>
                <path d="M61.8399281,96.6315789 L38.1017986,101.136842" id="Stroke-104" stroke="#FFDADA"></path>
                <path d="M62.0132374,97.5315789 L26.0174101,105.010526" id="Stroke-105" stroke="#FFDADA"></path>
                <path d="M62.207554,98.4263158 L29.9352518,105.726316" id="Stroke-106" stroke="#FFDADA"></path>
                <path d="M62.4176259,99.3157895 L27.2148201,107.926316" id="Stroke-107" stroke="#FFDADA"></path>
                <path d="M62.6434532,100.205263 L29.6253957,108.894737" id="Stroke-108" stroke="#FFDADA"></path>
                <path d="M62.8797842,101.089474 L39.6248201,107.642105" id="Stroke-109" stroke="#FFDADA"></path>
                <path d="M63.1371223,101.968421 L45.5330935,107.263158" id="Stroke-110" stroke="#FFDADA"></path>
                <path d="M63.404964,102.842105 L27.8870504,114.205263" id="Stroke-111" stroke="#FFDADA"></path>
                <path d="M63.6938129,103.715789 L47.2766906,109.284211" id="Stroke-112" stroke="#FFDADA"></path>
                <path d="M63.9931655,104.578947 L42.234964,112.384211" id="Stroke-113" stroke="#FFDADA"></path>
                <path d="M64.3082734,105.442105 L39.2519424,114.926316" id="Stroke-114" stroke="#FFDADA"></path>
                <path d="M64.6391367,106.294737 L35.3603597,117.963158" id="Stroke-115" stroke="#FFDADA"></path>
                <path d="M64.9857554,107.142105 L52.3866906,112.421053" id="Stroke-116" stroke="#FFDADA"></path>
                <path d="M65.3428777,107.984211 L49.9551079,114.747368" id="Stroke-117" stroke="#FFDADA"></path>
                <path d="M65.7210072,108.821053 L47.1086331,117.389474" id="Stroke-118" stroke="#FFDADA"></path>
                <path d="M66.1096403,109.647368 L41.0217986,121.736842" id="Stroke-119" stroke="#FFDADA"></path>
                <path d="M66.508777,110.468421 L43.5164029,122.047368" id="Stroke-120" stroke="#FFDADA"></path>
                <path d="M66.9289209,111.284211 L35.7647482,127.663158" id="Stroke-121" stroke="#FFDADA"></path>
                <path d="M67.3595683,112.094737 L31.416259,131.789474" id="Stroke-122" stroke="#FFDADA"></path>
                <path d="M67.8059712,112.894737 L46.8145324,124.878947" id="Stroke-123" stroke="#FFDADA"></path>
                <path d="M68.2628777,113.684211 L53.8099281,122.273684" id="Stroke-124" stroke="#FFDADA"></path>
                <path d="M68.7355396,114.468421 L38.7897842,132.978947" id="Stroke-125" stroke="#FFDADA"></path>
                <path d="M69.2239568,115.242105 L32.9707914,138.536842" id="Stroke-126" stroke="#FFDADA"></path>
                <path d="M69.7228777,116.010526 L53.9884892,126.510526" id="Stroke-127" stroke="#FFDADA"></path>
                <path d="M70.237554,116.768421 L48.6369065,131.731579" id="Stroke-128" stroke="#FFDADA"></path>
                <path d="M70.7627338,117.515789 L49.4246763,132.857895" id="Stroke-129" stroke="#FFDADA"></path>
                <path d="M71.3036691,118.257895 L59.9282734,126.742105" id="Stroke-130" stroke="#FFDADA"></path>
                <path d="M71.8551079,118.989474 L54.3876259,132.489474" id="Stroke-131" stroke="#FFDADA"></path>
                <path d="M72.4170504,119.710526 L56.4200719,132.526316" id="Stroke-132" stroke="#FFDADA"></path>
                <path d="M72.9947482,120.421053 L58.4367626,132.505263" id="Stroke-133" stroke="#FFDADA"></path>
                <path d="M73.5882014,121.121053 L52.0663309,139.626316" id="Stroke-134" stroke="#FFDADA"></path>
                <path d="M74.1869065,121.810526 L65.1590647,129.852632" id="Stroke-135" stroke="#FFDADA"></path>
                <path d="M74.8013669,122.489474 L55.48,140.310526" id="Stroke-136" stroke="#FFDADA"></path>
                <path d="M75.4263309,123.157895 L56.0366906,141.678947" id="Stroke-137" stroke="#FFDADA"></path>
                <path d="M76.0617986,123.815789 L71.5767626,128.252632" id="Stroke-138" stroke="#FFDADA"></path>
                <path d="M76.7077698,124.463158 L70.4633813,130.857895" id="Stroke-139" stroke="#FFDADA"></path>
                <path d="M77.3694964,125.094737 L64.7441727,138.484211" id="Stroke-140" stroke="#FFDADA"></path>
                <path d="M78.0364748,125.721053 L52.1976259,154.1" id="Stroke-141" stroke="#FFDADA"></path>
                <path d="M78.7192086,126.331579 L51.6356835,157.131579" id="Stroke-142" stroke="#FFDADA"></path>
                <path d="M79.4071942,126.931579 L60.3536691,149.378947" id="Stroke-143" stroke="#FFDADA"></path>
                <path d="M80.1109353,127.515789 L61.7821583,149.889474" id="Stroke-144" stroke="#FFDADA"></path>
                <path d="M80.8199281,128.094737 L64.838705,148.305263" id="Stroke-145" stroke="#FFDADA"></path>
                <path d="M81.5446763,128.657895 L60.1751079,156.668421" id="Stroke-146" stroke="#FFDADA"></path>
                <path d="M82.2746763,129.205263 L70.7417266,144.878947" id="Stroke-147" stroke="#FFDADA"></path>
                <path d="M83.0151799,129.742105 L73.887554,142.610526" id="Stroke-148" stroke="#FFDADA"></path>
                <path d="M83.7661871,130.268421 L67.7429496,153.715789" id="Stroke-149" stroke="#FFDADA"></path>
                <path d="M84.522446,130.778947 L71.5084892,150.547368" id="Stroke-150" stroke="#FFDADA"></path>
                <path d="M85.2892086,131.273684 L78.5353957,141.942105" id="Stroke-151" stroke="#FFDADA"></path>
                <path d="M86.0664748,131.757895 L81.1402878,139.847368" id="Stroke-152" stroke="#FFDADA"></path>
                <path d="M86.8489928,132.231579 L69.5705755,161.731579" id="Stroke-153" stroke="#FFDADA"></path>
                <path d="M87.6420144,132.689474 L78.0994964,149.647368" id="Stroke-154" stroke="#FFDADA"></path>
                <path d="M88.4455396,133.131579 L79.6960432,149.331579" id="Stroke-155" stroke="#FFDADA"></path>
                <path d="M89.2490647,133.557895 L75.2215108,160.652632" id="Stroke-156" stroke="#FFDADA"></path>
                <path d="M90.0630935,133.973684 L79.7800719,154.710526" id="Stroke-157" stroke="#FFDADA"></path>
                <path d="M90.8876259,134.373684 L76.6815108,164.321053" id="Stroke-158" stroke="#FFDADA"></path>
                <path d="M91.7174101,134.763158 L85.8511511,147.7" id="Stroke-159" stroke="#FFDADA"></path>
                <path d="M92.552446,135.131579 L85.8669065,150.584211" id="Stroke-160" stroke="#FFDADA"></path>
                <path d="M93.3927338,135.489474 L80.7674101,166.136842" id="Stroke-161" stroke="#FFDADA"></path>
                <path d="M94.2435252,135.831579 L79.4597122,173.552632" id="Stroke-162" stroke="#FFDADA"></path>
                <path d="M95.0943165,136.157895 L87.9413669,155.394737" id="Stroke-163" stroke="#FFDADA"></path>
                <path d="M95.9556115,136.473684 L90.0105755,153.347368" id="Stroke-164" stroke="#FFDADA"></path>
                <path d="M96.8169065,136.768421 L88.8394245,160.731579" id="Stroke-165" stroke="#FFDADA"></path>
                <path d="M97.688705,137.052632 L95.3253957,144.584211" id="Stroke-166" stroke="#FFDADA"></path>
                <path d="M98.5605036,137.315789 L93.3559712,154.984211" id="Stroke-167" stroke="#FFDADA"></path>
                <path d="M99.4428058,137.568421 L93.1406475,160.4" id="Stroke-168" stroke="#FFDADA"></path>
                <path d="M100.325108,137.805263 L92.4579137,168.384211" id="Stroke-169" stroke="#FFDADA"></path>
                <path d="M101.212662,138.026316 L96.932446,155.942105" id="Stroke-170" stroke="#FFDADA"></path>
                <path d="M102.100216,138.231579 L97.5679137,158.789474" id="Stroke-171" stroke="#FFDADA"></path>
                <path d="M102.998273,138.421053 L99.1329496,157.505263" id="Stroke-172" stroke="#FFDADA"></path>
                <path d="M103.896331,138.594737 L99.6003597,161.889474" id="Stroke-173" stroke="#FFDADA"></path>
                <path d="M104.794388,138.757895 L101.165396,160.557895" id="Stroke-174" stroke="#FFDADA"></path>
                <path d="M105.697698,138.9 L100.435396,174.294737" id="Stroke-175" stroke="#FFDADA"></path>
                <path d="M106.601007,139.026316 L101.884892,175.031579" id="Stroke-176" stroke="#FFDADA"></path>
                <path d="M107.509568,139.136842 L103.182086,177.310526" id="Stroke-177" stroke="#FFDADA"></path>
                <path d="M108.418129,139.231579 L105.555899,169.094737" id="Stroke-178" stroke="#FFDADA"></path>
                <path d="M109.331942,139.310526 L108.465396,150.331579" id="Stroke-179" stroke="#FFDADA"></path>
                <path d="M110.240504,139.373684 L108.512662,167.742105" id="Stroke-180" stroke="#FFDADA"></path>
                <path d="M111.154317,139.426316 L109.76259,171.5" id="Stroke-181" stroke="#FFDADA"></path>
                <path d="M112.068129,139.457895 L111.301367,168.921053" id="Stroke-182" stroke="#FFDADA"></path>
                <path d="M112.981942,139.473684 L112.630072,179.994737" id="Stroke-183" stroke="#FFDADA"></path>
                <path d="M113.895755,139.473684 L114.179353,172.1" id="Stroke-184" stroke="#FFDADA"></path>
                <path d="M114.809568,139.457895 L115.534317,167.342105" id="Stroke-185" stroke="#FFDADA"></path>
                <path d="M115.723381,139.426316 L116.201295,150.468421" id="Stroke-186" stroke="#FFDADA"></path>
                <path d="M116.637194,139.373684 L117.692806,156.710526" id="Stroke-187" stroke="#FFDADA"></path>
                <path d="M117.545755,139.310526 L120.71259,179.715789" id="Stroke-188" stroke="#FFDADA"></path>
                <path d="M118.459568,139.231579 L120.665324,162.284211" id="Stroke-189" stroke="#FFDADA"></path>
                <path d="M119.368129,139.136842 L121.563381,158.484211" id="Stroke-190" stroke="#FFDADA"></path>
                <path d="M120.276691,139.026316 L124.031727,167.726316" id="Stroke-191" stroke="#FFDADA"></path>
                <path d="M121.18,138.9 L125.281655,166.489474" id="Stroke-192" stroke="#FFDADA"></path>
                <path d="M122.083309,138.757895 L125.192374,157.447368" id="Stroke-193" stroke="#FFDADA"></path>
                <path d="M122.981367,138.594737 L125.370935,151.536842" id="Stroke-194" stroke="#FFDADA"></path>
                <path d="M123.879424,138.421053 L129.519856,166.278947" id="Stroke-195" stroke="#FFDADA"></path>
                <path d="M124.77223,138.231579 L129.876978,161.357895" id="Stroke-196" stroke="#FFDADA"></path>
                <path d="M125.665036,138.026316 L131.531295,162.594737" id="Stroke-197" stroke="#FFDADA"></path>
                <path d="M126.55259,137.805263 L129.435827,149.021053" id="Stroke-198" stroke="#FFDADA"></path>
                <path d="M127.434892,137.568421 L130.375899,148.221053" id="Stroke-199" stroke="#FFDADA"></path>
                <path d="M128.311942,137.315789 L133.369424,154.478947" id="Stroke-200" stroke="#FFDADA"></path>
                <path d="M129.188993,137.052632 L132.182518,146.589474" id="Stroke-201" stroke="#FFDADA"></path>
                <path d="M130.05554,136.768421 L136.704317,156.742105" id="Stroke-202" stroke="#FFDADA"></path>
                <path d="M130.922086,136.473684 L141.41518,166.247368" id="Stroke-203" stroke="#FFDADA"></path>
                <path d="M131.783381,136.157895 L137.465827,151.447368" id="Stroke-204" stroke="#FFDADA"></path>
                <path d="M132.634173,135.831579 L144.923381,167.184211" id="Stroke-205" stroke="#FFDADA"></path>
                <path d="M133.484964,135.489474 L139.89741,151.057895" id="Stroke-206" stroke="#FFDADA"></path>
                <path d="M134.325252,135.131579 L139.54554,147.205263" id="Stroke-207" stroke="#FFDADA"></path>
                <path d="M135.160288,134.763158 L141.241871,148.178947" id="Stroke-208" stroke="#FFDADA"></path>
                <path d="M135.990072,134.373684 L155.836619,176.205263" id="Stroke-209" stroke="#FFDADA"></path>
                <path d="M136.809353,133.973684 L144.524245,149.526316" id="Stroke-210" stroke="#FFDADA"></path>
                <path d="M137.628633,133.557895 L150.689856,158.784211" id="Stroke-211" stroke="#FFDADA"></path>
                <path d="M138.432158,133.131579 L150.931439,156.273684" id="Stroke-212" stroke="#FFDADA"></path>
                <path d="M139.235683,132.689474 L151.614173,154.694737" id="Stroke-213" stroke="#FFDADA"></path>
                <path d="M140.028705,132.231579 L149.06705,147.663158" id="Stroke-214" stroke="#FFDADA"></path>
                <path d="M140.811223,131.757895 L149.571223,146.131579" id="Stroke-215" stroke="#FFDADA"></path>
                <path d="M141.588489,131.273684 L150.311727,145.052632" id="Stroke-216" stroke="#FFDADA"></path>
                <path d="M142.355252,130.778947 L157.68,154.063158" id="Stroke-217" stroke="#FFDADA"></path>
                <path d="M143.111511,130.268421 L152.013309,143.294737" id="Stroke-218" stroke="#FFDADA"></path>
                <path d="M143.862518,129.742105 L154.208561,144.331579" id="Stroke-219" stroke="#FFDADA"></path>
                <path d="M144.603022,129.205263 L159.560144,149.542105" id="Stroke-220" stroke="#FFDADA"></path>
                <path d="M145.333022,128.657895 L154.901799,141.2" id="Stroke-221" stroke="#FFDADA"></path>
                <path d="M146.052518,128.094737 L161.056906,147.068421" id="Stroke-222" stroke="#FFDADA"></path>
                <path d="M146.766763,127.515789 L162.763741,147.042105" id="Stroke-223" stroke="#FFDADA"></path>
                <path d="M147.465252,126.931579 L158.016115,139.357895" id="Stroke-224" stroke="#FFDADA"></path>
                <path d="M148.158489,126.331579 L160.311151,140.152632" id="Stroke-225" stroke="#FFDADA"></path>
                <path d="M148.841223,125.721053 L163.000072,141.268421" id="Stroke-226" stroke="#FFDADA"></path>
                <path d="M149.508201,125.094737 L161.771151,138.1" id="Stroke-227" stroke="#FFDADA"></path>
                <path d="M150.169928,124.463158 L156.046691,130.478947" id="Stroke-228" stroke="#FFDADA"></path>
                <path d="M150.815899,123.815789 L163.898129,136.757895" id="Stroke-229" stroke="#FFDADA"></path>
                <path d="M151.451367,123.157895 L167.800216,138.773684" id="Stroke-230" stroke="#FFDADA"></path>
                <path d="M152.076331,122.489474 L179.123094,147.442105" id="Stroke-231" stroke="#FFDADA"></path>
                <path d="M152.690791,121.810526 L174.669568,141.389474" id="Stroke-232" stroke="#FFDADA"></path>
                <path d="M153.289496,121.121053 L172.421799,137.573684" id="Stroke-233" stroke="#FFDADA"></path>
                <path d="M153.88295,120.421053 L168.440935,132.505263" id="Stroke-234" stroke="#FFDADA"></path>
                <path d="M154.455396,119.710526 L173.734748,135.157895" id="Stroke-235" stroke="#FFDADA"></path>
                <path d="M155.02259,118.989474 L171.240144,131.526316" id="Stroke-236" stroke="#FFDADA"></path>
                <path d="M155.574029,118.257895 L183.382302,138.994737" id="Stroke-237" stroke="#FFDADA"></path>
                <path d="M156.114964,117.521053 L179.159856,134.084211" id="Stroke-238" stroke="#FFDADA"></path>
                <path d="M156.640144,116.768421 L175.646403,129.936842" id="Stroke-239" stroke="#FFDADA"></path>
                <path d="M157.15482,116.010526 L186.00295,135.263158" id="Stroke-240" stroke="#FFDADA"></path>
                <path d="M157.653741,115.247368 L179.31741,129.163158" id="Stroke-241" stroke="#FFDADA"></path>
                <path d="M158.142158,114.468421 L200.60295,140.715789" id="Stroke-242" stroke="#FFDADA"></path>
                <path d="M158.61482,113.684211 L174.422734,123.078947" id="Stroke-243" stroke="#FFDADA"></path>
                <path d="M159.071727,112.894737 L190.556259,130.868421" id="Stroke-244" stroke="#FFDADA"></path>
                <path d="M159.518129,112.094737 L193.618058,130.778947" id="Stroke-245" stroke="#FFDADA"></path>
                <path d="M159.948777,111.284211 L198.554748,131.573684" id="Stroke-246" stroke="#FFDADA"></path>
                <path d="M160.368921,110.473684 L208.701223,134.810526" id="Stroke-247" stroke="#FF4B61" stroke-width="0.5"></path>
                <path d="M160.768058,109.647368 L196.270216,126.752632" id="Stroke-248" stroke="#FFDADA"></path>
                <path d="M161.156691,108.821053 L183.109209,118.931579" id="Stroke-249" stroke="#FFDADA"></path>
                <path d="M161.53482,107.984211 L175.961511,114.326316" id="Stroke-250" stroke="#FFDADA"></path>
                <path d="M161.891942,107.142105 L190.965899,119.321053" id="Stroke-251" stroke="#FFDADA"></path>
                <path d="M162.238561,106.294737 L205.182518,123.410526" id="Stroke-252" stroke="#FFDADA"></path>
                <path d="M162.569424,105.442105 L212.188417,124.226316" id="Stroke-253" stroke="#FF4B61" stroke-width="0.5"></path>
                <path d="M162.884532,104.578947 L202.934748,118.947368" id="Stroke-254" stroke="#FFDADA"></path>
                <path d="M163.183885,103.715789 L184.07554,110.8" id="Stroke-255" stroke="#FFDADA"></path>
                <path d="M163.472734,102.847368 L179.979137,108.126316" id="Stroke-256" stroke="#FFDADA"></path>
                <path d="M163.740576,101.968421 L199.956978,112.863158" id="Stroke-257" stroke="#FFDADA"></path>
                <path d="M163.997914,101.089474 L210.507842,114.2" id="Stroke-258" stroke="#FFDADA"></path>
                <path d="M164.234245,100.205263 L187.599496,106.352632" id="Stroke-259" stroke="#FFDADA"></path>
                <path d="M164.460072,99.3210526 L188.949209,105.305263" id="Stroke-260" stroke="#FFDADA"></path>
                <path d="M164.670144,98.4263158 L195.408921,105.378947" id="Stroke-261" stroke="#FFDADA"></path>
                <path d="M164.86446,97.5315789 L176.176835,99.8842105" id="Stroke-262" stroke="#FFDADA"></path>
                <path d="M165.03777,96.6315789 L173.298849,98.2" id="Stroke-263" stroke="#FFDADA"></path>
                <path d="M165.200576,95.7315789 L177.106403,97.7736842" id="Stroke-264" stroke="#FFDADA"></path>
                <path d="M165.347626,94.8263158 L195.456187,99.4578947" id="Stroke-265" stroke="#FFDADA"></path>
                <path d="M165.478921,93.9210526 L190.981655,97.3894737" id="Stroke-266" stroke="#FFDADA"></path>
                <path d="M165.59446,93.0105263 L212.015108,98.5052632" id="Stroke-267" stroke="#FFDADA"></path>
                <path d="M165.694245,92.1 L212.724101,96.8368421" id="Stroke-268" stroke="#FFDADA"></path>
                <path d="M165.778273,91.1894737 L206.600504,94.5789474" id="Stroke-269" stroke="#FFDADA"></path>
                <path d="M165.846547,90.2736842 L190.99741,91.9263158" id="Stroke-270" stroke="#FFDADA"></path>
                <path d="M165.899065,89.3631579 L210.486835,91.5" id="Stroke-271" stroke="#FFDADA"></path>
                <path d="M165.930576,88.4473684 L218.952734,90.0631579" id="Stroke-272" stroke="#FF4B61" stroke-width="0.5"></path>
                <path d="M165.951583,87.5315789 L197.987554,87.9473684" id="Stroke-273" stroke="#FFDADA"></path>
                <path d="M165.956835,86.6157895 L195.892086,86.4842105" id="Stroke-274" stroke="#FFDADA"></path>
                <path d="M165.946331,85.7 L190.624532,85.1578947" id="Stroke-275" stroke="#FFDADA"></path>
                <path d="M165.91482,84.7842105 L187.956619,83.9157895" id="Stroke-276" stroke="#FFDADA"></path>
                <path d="M165.872806,83.8684211 L195.760791,82.1736842" id="Stroke-277" stroke="#FFDADA"></path>
                <path d="M165.815036,82.9526316 L184.668993,81.5526316" id="Stroke-278" stroke="#FFDADA"></path>
                <path d="M165.736259,82.0421053 L173.582446,81.3210526" id="Stroke-279" stroke="#FFDADA"></path>
                <path d="M165.646978,81.1315789 L177.65259,79.8157895" id="Stroke-280" stroke="#FFDADA"></path>
                <path d="M165.541942,80.2210526 L173.876547,79.1578947" id="Stroke-281" stroke="#FFDADA"></path>
                <path d="M165.415899,79.3105263 L177.368993,77.5789474" id="Stroke-282" stroke="#FFDADA"></path>
                <path d="M165.279353,78.4052632 L173.052014,77.1421053" id="Stroke-283" stroke="#FFDADA"></path>
                <path d="M165.121799,77.5052632 L185.798129,73.7684211" id="Stroke-284" stroke="#FFDADA"></path>
                <path d="M164.953741,76.6052632 L188.13518,71.9947368" id="Stroke-285" stroke="#FFDADA"></path>
                <path d="M164.769928,75.7052632 L182.731079,71.8105263" id="Stroke-286" stroke="#FFDADA"></path>
                <path d="M164.565108,74.8105263 L175.305036,72.2842105" id="Stroke-287" stroke="#FFDADA"></path>
                <path d="M164.349784,73.9210526 L177.080144,70.6947368" id="Stroke-288" stroke="#FFDADA"></path>
                <path d="M164.118705,73.0368421 L178.813237,69.0315789" id="Stroke-289" stroke="#FFDADA"></path>
                <path d="M163.871871,72.1526316 L181.018993,67.1631579" id="Stroke-290" stroke="#FFDADA"></path>
                <path d="M163.609281,71.2789474 L174.144388,68.0105263" id="Stroke-291" stroke="#FFDADA"></path>
                <path d="M163.330935,70.4052632 L178.298561,65.4736842" id="Stroke-292" stroke="#FFDADA"></path>
                <path d="M163.036835,69.5368421 L183.865468,62.2684211" id="Stroke-293" stroke="#FFDADA"></path>
                <path d="M162.726978,68.6736842 L190.824101,58.3210526" id="Stroke-294" stroke="#FFDADA"></path>
                <path d="M162.406619,67.8157895 L184.931583,59.0684211" id="Stroke-295" stroke="#FFDADA"></path>
                <path d="M162.070504,66.9684211 L181.517914,59.0157895" id="Stroke-296" stroke="#FFDADA"></path>
                <path d="M161.713381,66.1210526 L180.063165,58.2473684" id="Stroke-297" stroke="#FFDADA"></path>
                <path d="M161.351007,65.2842105 L179.553741,57.0894737" id="Stroke-298" stroke="#FFDADA"></path>
                <path d="M160.967626,64.4526316 L176.176835,57.2842105" id="Stroke-299" stroke="#FFDADA"></path>
                <path d="M160.568489,63.6263158 L178.009712,55.0315789" id="Stroke-300" stroke="#FFDADA"></path>
                <path d="M160.158849,62.8052632 L183.986259,50.5473684" id="Stroke-301" stroke="#FFDADA"></path>
                <path d="M159.733453,61.9947368 L181.496906,50.3157895" id="Stroke-302" stroke="#FFDADA"></path>
                <path d="M159.297554,61.1894737 L174.890144,52.4684211" id="Stroke-303" stroke="#FFDADA"></path>
                <path d="M158.845899,60.3947368 L170.651942,53.5210526" id="Stroke-304" stroke="#FFDADA"></path>
                <path d="M158.378489,59.6052632 L186.239281,42.7210526" id="Stroke-305" stroke="#FFDADA"></path>
                <path d="M157.900576,58.8263158 L190.356691,38.3789474" id="Stroke-306" stroke="#FFDADA"></path>
                <path d="M157.406906,58.0578947 L174.989928,46.5421053" id="Stroke-307" stroke="#FFDADA"></path>
                <path d="M156.897482,57.2947368 L174.716835,45.1789474" id="Stroke-308" stroke="#FFDADA"></path>
                <path d="M156.377554,56.5421053 L184.290863,36.8421053" id="Stroke-309" stroke="#FFDADA"></path>
                <path d="M155.847122,55.7947368 L177.048633,40.2736842" id="Stroke-310" stroke="#FFDADA"></path>
                <path d="M155.300935,55.0631579 L173.718993,41.0789474" id="Stroke-311" stroke="#FFDADA"></path>
                <path d="M154.744245,54.3368421 L174.979424,38.4052632" id="Stroke-312" stroke="#FFDADA"></path>
                <path d="M154.171799,53.6210526 L167.616403,42.6578947" id="Stroke-313" stroke="#FFDADA"></path>
                <path d="M153.588849,52.9157895 L168.845324,40.0210526" id="Stroke-314" stroke="#FFDADA"></path>
                <path d="M152.995396,52.2210526 L172.374532,35.2526316" id="Stroke-315" stroke="#FFDADA"></path>
                <path d="M152.386187,51.5368421 L167.963022,37.4105263" id="Stroke-316" stroke="#FFDADA"></path>
                <path d="M151.766475,50.8631579 L172.463813,31.4315789" id="Stroke-317" stroke="#FFDADA"></path>
                <path d="M151.136259,50.2 L176.770288,25.2789474" id="Stroke-318" stroke="#FFDADA"></path>
                <path d="M150.49554,49.5473684 L176.434173,23.4368421" id="Stroke-319" stroke="#FFDADA"></path>
                <path d="M149.839065,48.9052632 L173.866043,23.8684211" id="Stroke-320" stroke="#FFDADA"></path>
                <path d="M149.177338,48.2736842 L164.901223,31.3052632" id="Stroke-321" stroke="#FFDADA"></path>
                <path d="M148.499856,47.6578947 L167.437842,26.5" id="Stroke-322" stroke="#FFDADA"></path>
                <path d="M147.817122,47.0526316 L157.09705,36.3105263" id="Stroke-323" stroke="#FFDADA"></path>
                <path d="M147.118633,46.4578947 L163.625036,26.6736842" id="Stroke-324" stroke="#FFDADA"></path>
                <path d="M146.414892,45.8789474 L165.867554,21.7105263" id="Stroke-325" stroke="#FFDADA"></path>
                <path d="M145.695396,45.3105263 L162.795252,23.2947368" id="Stroke-326" stroke="#FFDADA"></path>
                <path d="M144.970647,44.7526316 L158.845899,26.2315789" id="Stroke-327" stroke="#FFDADA"></path>
                <path d="M144.235396,44.2105263 L162.096763,19.4842105" id="Stroke-328" stroke="#FFDADA"></path>
                <path d="M143.48964,43.6789474 L161.823669,17.3473684" id="Stroke-329" stroke="#FFDADA"></path>
                <path d="M142.733381,43.1631579 L150.05964,32.2421053" id="Stroke-330" stroke="#FFDADA"></path>
                <path d="M141.971871,42.6578947 L162.233309,11.2842105" id="Stroke-331" stroke="#FFDADA"></path>
                <path d="M141.199856,42.1631579 L158.966691,13.5736842" id="Stroke-332" stroke="#FFDADA"></path>
                <path d="M140.42259,41.6894737 L156.07295,15.5" id="Stroke-333" stroke="#FFDADA"></path>
                <path d="M139.63482,41.2263158 L147.754101,27.0842105" id="Stroke-334" stroke="#FFDADA"></path>
                <path d="M138.836547,40.7736842 L151.535396,17.7421053" id="Stroke-335" stroke="#FFDADA"></path>
                <path d="M138.033022,40.3368421 L152.790576,12.4368421" id="Stroke-336" stroke="#FFDADA"></path>
                <path d="M137.218993,39.9157895 L151.015468,12.7" id="Stroke-337" stroke="#FFDADA"></path>
                <path d="M136.404964,39.5105263 L148.573381,14.4210526" id="Stroke-338" stroke="#FFDADA"></path>
                <path d="M135.57518,39.1157895 L148.86223,10.4789474" id="Stroke-339" stroke="#FFDADA"></path>
                <path d="M134.745396,38.7368421 L146.677482,11.7947368" id="Stroke-340" stroke="#FFDADA"></path>
                <path d="M133.905108,38.3736842 L147.213165,6.86842105" id="Stroke-341" stroke="#FFDADA"></path>
                <path d="M133.059568,38.0210526 L142.481295,14.5894737" id="Stroke-342" stroke="#FFDADA"></path>
                <path d="M132.208777,37.6894737 L139.156906,19.5" id="Stroke-343" stroke="#FFDADA"></path>
                <path d="M131.352734,37.3684211 L138.521439,17.5789474" id="Stroke-344" stroke="#FFDADA"></path>
                <path d="M130.491439,37.0631579 L143.111511,0.226315789" id="Stroke-345" stroke="#FFDADA"></path>
                <path d="M129.624892,36.7736842 L139.177914,7.23157895" id="Stroke-346" stroke="#FFDADA"></path>
                <path d="M128.753094,36.5 L138.400647,4.77894737" id="Stroke-347" stroke="#FFDADA"></path>
                <path d="M127.876043,36.2368421 L134.372518,13.4684211" id="Stroke-348" stroke="#FFDADA"></path>
                <path d="M126.993741,35.9947368 L135.128777,5.48421053" id="Stroke-349" stroke="#FFDADA"></path>
                <path d="M126.111439,35.7631579 L132.066978,11.7578947" id="Stroke-350" stroke="#FFDADA"></path>
                <path d="M125.223885,35.5526316 L130.643741,11.9578947" id="Stroke-351" stroke="#FFDADA"></path>
                <path d="M124.331079,35.3526316 L129.666906,10.1263158" id="Stroke-352" stroke="#FFDADA"></path>
                <path d="M123.433022,35.1736842 L127.230072,15.5368421" id="Stroke-353" stroke="#FFDADA"></path>
                <path d="M122.534964,35.0052632 L126.353022,13.2368421" id="Stroke-354" stroke="#FFDADA"></path>
                <path d="M121.631655,34.8526316 L125.565252,9.9" id="Stroke-355" stroke="#FFDADA"></path>
                <path d="M120.728345,34.7210526 L124.520144,7.61578947" id="Stroke-356" stroke="#FFDADA"></path>
                <path d="M119.825036,34.6 L122.183094,15.2736842" id="Stroke-357" stroke="#FFDADA"></path>
                <path d="M118.916475,34.5 L120.665324,17.7473684" id="Stroke-358" stroke="#FFDADA"></path>
                <path d="M118.002662,34.4105263 L119.011007,22.8736842" id="Stroke-359" stroke="#FFDADA"></path>
                <path d="M117.094101,34.3368421 L118.338777,16.4842105" id="Stroke-360" stroke="#FFDADA"></path>
                <path d="M116.180288,34.2842105 L117.251655,13.7842105" id="Stroke-361" stroke="#FFDADA"></path>
                <path d="M115.266475,34.2421053 L116.311583,4.26315789" id="Stroke-362" stroke="#FFDADA"></path>
                <path d="M114.352662,34.2210526 L114.856835,5.27368421" id="Stroke-363" stroke="#FFDADA"></path>
                <path d="M113.438849,34.2105263 L113.438849,7.36842105" id="Stroke-364" stroke="#FFDADA"></path>
            </g>
        </g>
    </g>
</svg>