<?xml version="1.0" encoding="UTF-8" standalone="no"?>
<svg width="563px" height="260px" viewBox="0 0 563 260" version="1.1" xmlns="http://www.w3.org/2000/svg" xmlns:xlink="http://www.w3.org/1999/xlink">
    <!-- Generator: Sketch 43.2 (39069) - http://www.bohemiancoding.com/sketch -->
    <title>Artboard</title>
    <desc>Created with Sketch.</desc>
    <defs></defs>
    <g id="Page-1" stroke="none" stroke-width="1" fill="none" fill-rule="evenodd">
        <g id="Artboard" fill-rule="nonzero">
            <g id="car" transform="translate(24.000000, 29.000000)">
                <g id="Group">
                    <path d="M4.852,65.365 C-6.836,87.894 3.848,117.814 23.521,124.724 C53.03,135.086 80.309,130.62 110.495,121.581 C125.999,116.71 152.047,103.537 161.352,125.57 C165.432,133.938 162.613,141.923 168.865,149.831 C172.712,155.61 179.553,160.228 185.484,162.135 C201.252,167.498 218.722,167.224 234.108,170.82 C236.134,171.181 241.008,171.204 242.887,172.388 C245.823,175.458 244.648,182.039 247.731,184.287 C255.777,189.968 251.855,169.491 269.222,181.734 C273.954,185.07 287.115,185.747 286.056,179.401 C285.389,175.401 274.812,178.159 271.889,177.068 C265.679,174.749 261.813,170.611 261.813,170.611 C267.324,152.549 249.587,138.781 239.631,143.794 C236.931,123.789 258.604,103.892 239.138,91.927 C232.297,87.31 222.99,84.799 215.412,84.294 C206.339,84.372 195.415,90.91 187.458,88.64 C175.978,86.589 177.125,72.364 173.631,60.706 C170.138,49.046 163.504,39.373 155.606,32.869 C140.867,21.75 117.496,8.237 99.525,15.215 C88.895,20.108 86.163,31.503 77.559,36.757 C69.778,41.31 60.235,36.21 51.983,35.585 C34.131,34.095 15.278,46.007 4.852,65.365 Z" id="Shape" fill-opacity="0.5" fill="#D8D8D8"></path>
                    <path d="M411.785,133.933 C391.31,133.933 374.504,149.591 372.668,169.583 C372.557,170.78 372.492,171.993 372.492,173.222 C372.492,194.919 390.082,212.511 411.785,212.511 C433.482,212.511 451.07,194.919 451.07,173.222 C451.07,171.993 451.007,170.781 450.898,169.583 C449.061,149.591 432.256,133.933 411.785,133.933 Z M411.783,187.772 C403.746,187.772 397.23,181.256 397.23,173.219 C397.23,172.727 397.253,172.242 397.302,171.764 C398.032,164.41 404.236,158.668 411.782,158.668 C419.325,158.668 425.528,164.41 426.257,171.764 C426.306,172.243 426.331,172.727 426.331,173.219 C426.332,181.257 419.817,187.772 411.783,187.772 Z" id="Shape" fill="#000000"></path>
                    <path d="M292.888,184.401 L340.741,184.401 L351.696,169.583 L362.82,169.583 C364.685,144.161 385.883,124.108 411.785,124.108 C437.683,124.108 458.883,144.161 460.744,169.583 L541.459,169.583 L541.459,69.007 L417.686,69.007 C437.075,47.382 457.766,25.487 463.124,21.78 C469.551,19.18 502.894,14.778 541.46,13.101 L541.46,0 C502.157,1.673 464.423,6.188 456.892,10.243 C447.433,15.337 399.05,70.266 399.05,70.266 C399.05,70.266 304.829,84.455 300.827,87.729 C296.827,91.002 300.827,120.471 300.827,120.471 L312.288,142.297 L312.876,145.57 L303.556,145.57 C298.736,145.57 294.826,149.48 294.826,154.302 L294.826,160.851 C294.826,165.671 298.736,169.581 303.556,169.581 L339.261,169.581 L335.7,174.398 L292.889,174.398 C290.126,174.398 287.888,176.637 287.888,179.399 C287.887,182.164 290.125,184.401 292.888,184.401 Z M421.666,80.884 C421.666,78.964 423.221,77.407 425.143,77.407 L450.627,77.407 C452.547,77.407 454.104,78.964 454.104,80.884 L454.104,84.359 C454.104,86.279 452.547,87.836 450.627,87.836 L425.143,87.836 C423.221,87.836 421.666,86.279 421.666,84.359 L421.666,80.884 Z" id="Shape" fill="#FF4B61"></path>
                </g>
            </g>
        </g>
    </g>
</svg>