<?xml version="1.0" encoding="UTF-8" standalone="no"?>
<svg width="218px" height="39px" viewBox="0 0 218 39" version="1.1" xmlns="http://www.w3.org/2000/svg" xmlns:xlink="http://www.w3.org/1999/xlink">
    <!-- Generator: Sketch 43.1 (39012) - http://www.bohemiancoding.com/sketch -->
    <title>161116_FH;P_horizontal_K</title>
    <desc>Created with Sketch.</desc>
    <defs>
        <polygon id="path-1" points="0.06 0.97 0.06 29.718 64.584 29.718 64.584 0.97 0.06 0.97"></polygon>
    </defs>
    <g id="Page-1" stroke="none" stroke-width="1" fill="none" fill-rule="evenodd">
        <g id="iPad-Pro-Landscape" transform="translate(-881.000000, -616.000000)">
            <g id="161116_FH;P_horizontal_K" transform="translate(881.000000, 616.000000)">
                <path d="M64.592,28.987 C64.592,33.064 63.661,36.113 59.973,39 L55.974,35.615 C58.074,33.647 58.74,32.124 58.793,29.715 L55.594,29.716 L55.594,20.626 L64.592,20.626 L64.592,28.987" id="Fill-1" fill="#121212"></path>
                <g id="Group-5">
                    <mask id="mask-2" fill="white">
                        <use xlink:href="#path-1"></use>
                    </mask>
                    <g id="Clip-3"></g>
                    <polygon id="Fill-2" fill="#121212" mask="url(#mask-2)" points="55.651 14.577 64.584 14.577 64.584 5.487 55.651 5.487"></polygon>
                    <polyline id="Fill-4" fill="#121212" mask="url(#mask-2)" points="0 29.718 0 0.97 21.622 0.97 21.622 7.81 8.674 7.81 8.674 12.857 20.645 12.857 20.645 19.699 8.674 19.699 8.674 29.718 0 29.718"></polyline>
                </g>
                <polyline id="Fill-6" fill="#121212" points="41.773 29.716 41.773 18.478 33.386 18.478 33.386 29.716 24.508 29.716 24.508 0.97 33.386 0.97 33.386 11.067 41.773 11.067 41.773 0.97 50.69 0.97 50.69 29.716 41.773 29.716"></polyline>
                <path d="M81.835,13.999 C83.545,13.999 84.807,13.754 85.499,13.185 C86.149,12.655 86.394,11.841 86.394,10.904 C86.394,10.009 86.149,9.195 85.499,8.624 C84.848,8.014 83.788,7.81 81.956,7.81 L78.414,7.81 L78.414,13.999 L81.835,13.999 Z M69.659,29.716 L69.659,0.97 L81.956,0.97 C87.616,0.97 90.059,1.58 91.769,2.72 C94.294,4.389 95.515,7.118 95.515,10.701 C95.515,13.999 94.212,16.89 91.891,18.6 C89.896,20.025 87.29,20.718 82.812,20.718 L78.454,20.718 L78.454,29.716 L69.659,29.716 L69.659,29.716 Z" id="Fill-7" fill="#121212"></path>
                <polyline id="Fill-8" fill="#121212" points="110.93 1.995 110.93 3.854 112.819 3.854 112.819 4.863 110.93 4.863 110.93 7.712 109.58 7.712 109.58 0.965 113.029 0.965 113.029 1.995 110.93 1.995"></polyline>
                <path d="M116.491,5.453 L116.111,5.453 C115.141,5.453 114.861,5.773 114.861,6.243 C114.861,6.652 115.091,6.902 115.531,6.902 C115.84,6.902 116.18,6.743 116.491,6.472 L116.491,5.453 Z M116.77,7.712 L116.68,7.202 C116.25,7.572 115.79,7.822 115.151,7.822 C114.141,7.822 113.602,7.322 113.602,6.392 C113.602,5.353 114.431,4.664 116.18,4.664 L116.491,4.664 L116.491,4.284 C116.491,3.774 116.201,3.524 115.561,3.524 C115.041,3.524 114.492,3.664 114.041,3.824 L113.871,3.045 C114.461,2.785 115.131,2.594 115.88,2.594 C117.16,2.594 117.759,3.205 117.759,4.154 L117.759,7.712 L116.77,7.712 L116.77,7.712 Z" id="Fill-9" fill="#121212"></path>
                <path d="M120.93,7.812 C119.611,7.812 118.931,6.972 118.931,5.273 C118.931,3.694 119.741,2.594 121.02,2.594 C121.66,2.594 122.169,2.825 122.519,3.224 L122.069,3.883 C121.839,3.674 121.559,3.554 121.219,3.554 C120.64,3.554 120.27,4.093 120.27,5.143 C120.27,6.363 120.6,6.842 121.179,6.842 C121.579,6.842 121.91,6.713 122.239,6.423 L122.628,7.082 C122.239,7.482 121.689,7.812 120.93,7.812" id="Fill-10" fill="#121212"></path>
                <path d="M127.638,7.712 L126.359,7.712 C126.359,6.692 126.388,5.653 126.388,5.093 C126.388,3.894 126.149,3.624 125.689,3.624 C125.439,3.624 125.109,3.774 124.769,4.034 L124.769,7.712 L123.48,7.712 L123.48,0.626 L124.769,0.626 L124.769,3.134 C125.119,2.835 125.589,2.594 126.139,2.594 C127.138,2.594 127.678,3.215 127.678,4.863 C127.678,5.464 127.638,6.602 127.638,7.712" id="Fill-11" fill="#121212"></path>
                <path d="M133.247,7.712 L131.968,7.712 C131.968,6.692 131.997,5.653 131.997,5.093 C131.997,3.894 131.758,3.624 131.298,3.624 C131.048,3.624 130.718,3.774 130.378,4.034 L130.378,7.712 L129.089,7.712 L129.089,0.626 L130.378,0.626 L130.378,3.134 C130.729,2.835 131.199,2.594 131.748,2.594 C132.747,2.594 133.287,3.215 133.287,4.863 C133.287,5.464 133.247,6.602 133.247,7.712" id="Fill-12" fill="#121212"></path>
                <path d="M136.739,3.545 C136.149,3.545 135.74,3.954 135.74,5.093 C135.74,6.503 136.109,6.873 136.748,6.873 C137.328,6.873 137.738,6.463 137.738,5.323 C137.738,3.914 137.368,3.545 136.739,3.545 Z M136.639,7.822 C135.219,7.822 134.42,7.102 134.42,5.303 C134.42,3.454 135.349,2.594 136.838,2.594 C138.258,2.594 139.057,3.314 139.057,5.113 C139.057,6.952 138.128,7.822 136.639,7.822 L136.639,7.822 Z" id="Fill-13" fill="#121212"></path>
                <path d="M141.949,7.812 C140.63,7.812 139.951,6.972 139.951,5.273 C139.951,3.694 140.76,2.594 142.039,2.594 C142.679,2.594 143.189,2.825 143.538,3.224 L143.088,3.883 C142.859,3.674 142.578,3.554 142.239,3.554 C141.66,3.554 141.289,4.093 141.289,5.143 C141.289,6.363 141.619,6.842 142.199,6.842 C142.599,6.842 142.929,6.713 143.258,6.423 L143.648,7.082 C143.258,7.482 142.708,7.812 141.949,7.812" id="Fill-14" fill="#121212"></path>
                <path d="M148.658,7.712 L147.378,7.712 C147.378,6.692 147.408,5.653 147.408,5.093 C147.408,3.894 147.168,3.624 146.708,3.624 C146.458,3.624 146.128,3.774 145.788,4.034 L145.788,7.712 L144.499,7.712 L144.499,0.626 L145.788,0.626 L145.788,3.134 C146.139,2.835 146.609,2.594 147.158,2.594 C148.158,2.594 148.698,3.215 148.698,4.863 C148.698,5.464 148.658,6.602 148.658,7.712" id="Fill-15" fill="#121212"></path>
                <path d="M151.299,7.812 C150.74,7.812 150.23,7.672 149.741,7.402 L149.85,6.732 C150.42,6.862 150.759,6.902 151.07,6.902 C151.729,6.902 151.979,6.652 151.979,6.352 C151.979,6.023 151.819,5.853 151.089,5.593 C150.13,5.253 149.76,4.843 149.76,4.114 C149.76,3.205 150.49,2.594 151.589,2.594 C152.038,2.594 152.469,2.695 152.989,2.964 L152.848,3.624 C152.429,3.524 152.139,3.474 151.859,3.474 C151.339,3.474 151.11,3.713 151.11,3.994 C151.11,4.294 151.28,4.444 151.989,4.704 C152.968,5.033 153.338,5.503 153.338,6.222 C153.338,7.132 152.588,7.812 151.299,7.812" id="Fill-16" fill="#121212"></path>
                <path d="M156.139,7.812 C154.82,7.812 154.14,6.972 154.14,5.273 C154.14,3.694 154.949,2.594 156.229,2.594 C156.868,2.594 157.378,2.825 157.728,3.224 L157.278,3.883 C157.048,3.674 156.768,3.554 156.428,3.554 C155.849,3.554 155.479,4.093 155.479,5.143 C155.479,6.363 155.809,6.842 156.388,6.842 C156.788,6.842 157.118,6.713 157.448,6.423 L157.837,7.082 C157.448,7.482 156.898,7.812 156.139,7.812" id="Fill-17" fill="#121212"></path>
                <path d="M162.847,7.712 L161.568,7.712 C161.568,6.692 161.597,5.653 161.597,5.093 C161.597,3.894 161.358,3.624 160.898,3.624 C160.648,3.624 160.318,3.774 159.978,4.034 L159.978,7.712 L158.689,7.712 L158.689,0.626 L159.978,0.626 L159.978,3.134 C160.328,2.835 160.798,2.594 161.348,2.594 C162.347,2.594 162.887,3.215 162.887,4.863 C162.887,5.464 162.847,6.602 162.847,7.712" id="Fill-18" fill="#121212"></path>
                <path d="M167.408,7.712 L167.308,7.182 C166.878,7.572 166.368,7.822 165.798,7.822 C164.779,7.822 164.259,7.182 164.259,5.553 C164.259,4.933 164.299,3.804 164.299,2.705 L165.588,2.705 C165.588,3.713 165.549,4.733 165.549,5.333 C165.549,6.512 165.788,6.793 166.239,6.793 C166.518,6.793 166.848,6.623 167.168,6.382 L167.168,2.705 L168.457,2.705 L168.457,7.712 L167.408,7.712" id="Fill-19" fill="#121212"></path>
                <path d="M170.898,7.792 C170.248,7.792 169.908,7.591 169.908,6.782 L169.908,0.626 L171.198,0.626 L171.198,6.272 C171.198,6.833 171.268,6.912 171.528,6.912 C171.608,6.912 171.707,6.902 171.778,6.902 L171.827,7.662 C171.588,7.742 171.288,7.792 170.898,7.792" id="Fill-20" fill="#121212"></path>
                <path d="M175.458,4.643 C175.458,3.844 175.188,3.454 174.649,3.454 C174.089,3.454 173.789,3.944 173.749,4.664 L175.458,4.664 L175.458,4.643 Z M173.749,5.464 L173.749,5.533 C173.749,6.453 174.149,6.842 174.868,6.842 C175.318,6.842 175.908,6.743 176.488,6.552 L176.677,7.292 C176.068,7.612 175.348,7.822 174.609,7.822 C173.299,7.822 172.43,7.173 172.43,5.343 C172.43,3.554 173.299,2.594 174.699,2.594 C175.988,2.594 176.837,3.314 176.698,5.464 L173.749,5.464 L173.749,5.464 Z" id="Fill-21" fill="#121212"></path>
                <path d="M182.348,1.935 L181.938,1.935 L181.938,4.444 L182.348,4.444 C183.237,4.444 183.637,3.984 183.637,3.184 C183.637,2.375 183.287,1.935 182.348,1.935 Z M182.218,5.443 L181.938,5.443 L181.938,7.712 L180.588,7.712 L180.588,0.965 C181.218,0.965 181.858,0.946 182.547,0.946 C184.376,0.946 185.046,1.775 185.046,3.064 C185.046,4.444 184.307,5.443 182.218,5.443 L182.218,5.443 Z" id="Fill-22" fill="#121212"></path>
                <path d="M188.028,3.545 C187.438,3.545 187.029,3.954 187.029,5.093 C187.029,6.503 187.398,6.873 188.037,6.873 C188.617,6.873 189.027,6.463 189.027,5.323 C189.027,3.914 188.658,3.545 188.028,3.545 Z M187.928,7.822 C186.508,7.822 185.709,7.102 185.709,5.303 C185.709,3.454 186.638,2.594 188.127,2.594 C189.547,2.594 190.346,3.314 190.346,5.113 C190.346,6.952 189.417,7.822 187.928,7.822 L187.928,7.822 Z" id="Fill-23" fill="#121212"></path>
                <path d="M192.827,7.812 C191.908,7.812 191.559,7.462 191.559,6.503 L191.559,3.604 L190.929,3.604 L190.929,2.705 L191.609,2.705 C191.729,2.255 191.819,1.805 191.908,1.246 L192.848,1.246 L192.848,2.705 L193.957,2.705 L193.957,3.604 L192.848,3.604 L192.848,6.182 C192.848,6.692 192.968,6.852 193.297,6.852 C193.457,6.852 193.667,6.833 193.988,6.743 L194.087,7.482 C193.617,7.721 193.207,7.812 192.827,7.812" id="Fill-24" fill="#121212"></path>
                <path d="M196.278,7.812 C195.718,7.812 195.208,7.672 194.719,7.402 L194.828,6.732 C195.399,6.862 195.738,6.902 196.048,6.902 C196.707,6.902 196.957,6.652 196.957,6.352 C196.957,6.023 196.797,5.853 196.068,5.593 C195.109,5.253 194.739,4.843 194.739,4.114 C194.739,3.205 195.468,2.594 196.568,2.594 C197.017,2.594 197.448,2.695 197.967,2.964 L197.826,3.624 C197.408,3.524 197.117,3.474 196.837,3.474 C196.318,3.474 196.088,3.713 196.088,3.994 C196.088,4.294 196.258,4.444 196.967,4.704 C197.947,5.033 198.317,5.503 198.317,6.222 C198.317,7.132 197.567,7.812 196.278,7.812" id="Fill-25" fill="#121212"></path>
                <path d="M202.147,3.614 C201.966,3.554 201.757,3.514 201.536,3.514 C200.887,3.514 200.438,4.044 200.438,5.233 C200.438,6.293 200.747,6.833 201.257,6.833 C201.496,6.833 201.817,6.692 202.147,6.413 L202.147,3.614 Z M202.386,7.712 L202.286,7.202 C201.867,7.562 201.407,7.822 200.877,7.822 C199.707,7.822 199.118,6.753 199.118,5.413 C199.118,3.394 200.207,2.594 201.587,2.594 C201.786,2.594 202.017,2.615 202.147,2.625 L202.147,0.626 L203.436,0.626 L203.436,7.712 L202.386,7.712 L202.386,7.712 Z" id="Fill-26" fill="#121212"></path>
                <path d="M207.457,5.453 L207.077,5.453 C206.108,5.453 205.827,5.773 205.827,6.243 C205.827,6.652 206.058,6.902 206.497,6.902 C206.807,6.902 207.147,6.743 207.457,6.472 L207.457,5.453 Z M207.737,7.712 L207.647,7.202 C207.217,7.572 206.757,7.822 206.117,7.822 C205.108,7.822 204.569,7.322 204.569,6.392 C204.569,5.353 205.398,4.664 207.147,4.664 L207.457,4.664 L207.457,4.284 C207.457,3.774 207.167,3.524 206.528,3.524 C206.008,3.524 205.458,3.664 205.008,3.824 L204.838,3.045 C205.428,2.785 206.098,2.594 206.847,2.594 C208.126,2.594 208.726,3.205 208.726,4.154 L208.726,7.712 L207.737,7.712 L207.737,7.712 Z" id="Fill-27" fill="#121212"></path>
                <path d="M217.084,7.712 L215.805,7.712 C215.805,6.703 215.835,5.673 215.835,5.093 C215.835,3.894 215.616,3.624 215.186,3.624 C214.926,3.624 214.566,3.814 214.236,4.074 C214.266,4.234 214.286,4.464 214.286,4.824 L214.286,7.712 L213.007,7.712 L213.007,5.093 C213.007,3.914 212.786,3.624 212.367,3.624 C212.127,3.624 211.797,3.784 211.467,4.034 L211.467,7.712 L210.178,7.712 L210.178,2.705 L211.238,2.705 L211.327,3.234 C211.728,2.865 212.238,2.594 212.807,2.594 C213.426,2.594 213.836,2.905 214.026,3.314 C214.506,2.884 215.026,2.594 215.625,2.594 C216.605,2.594 217.124,3.234 217.124,4.853 C217.124,5.473 217.084,6.612 217.084,7.712" id="Fill-28" fill="#121212"></path>
                <path d="M111.99,18.822 C110.39,18.822 109.571,18.152 109.571,16.424 L109.571,11.965 L110.92,11.965 L110.92,16.283 C110.92,17.432 111.28,17.833 112.11,17.833 C112.859,17.833 113.309,17.482 113.309,16.363 L113.309,11.965 L114.628,11.965 L114.628,16.273 C114.628,18.122 113.538,18.822 111.99,18.822" id="Fill-29" fill="#121212"></path>
                <path d="M120.319,18.712 L119.039,18.712 C119.039,17.703 119.069,16.673 119.069,16.084 C119.069,14.894 118.839,14.624 118.379,14.624 C118.11,14.624 117.78,14.784 117.449,15.034 L117.449,18.712 L116.16,18.712 L116.16,13.705 L117.22,13.705 L117.31,14.234 C117.74,13.844 118.249,13.594 118.829,13.594 C119.838,13.594 120.359,14.234 120.359,15.863 C120.359,16.483 120.319,17.612 120.319,18.712" id="Fill-30" fill="#121212"></path>
                <path d="M121.77,18.712 L123.059,18.712 L123.059,13.705 L121.77,13.705 L121.77,18.712 Z M122.419,13.055 C121.8,13.055 121.65,12.895 121.65,12.385 C121.65,11.885 121.81,11.715 122.419,11.715 C123.039,11.715 123.179,11.866 123.179,12.385 C123.179,12.885 123.03,13.055 122.419,13.055 L122.419,13.055 Z" id="Fill-31" fill="#121212"></path>
                <path d="M127.078,18.712 L125.4,18.712 L123.971,13.705 L125.36,13.705 L126.169,16.533 L126.369,17.533 C126.789,16.174 127.078,14.934 127.199,13.705 L128.528,13.705 C128.268,15.424 127.779,17.142 127.078,18.712" id="Fill-32" fill="#121212"></path>
                <path d="M132.199,15.643 C132.199,14.844 131.928,14.454 131.389,14.454 C130.829,14.454 130.53,14.944 130.49,15.664 L132.199,15.664 L132.199,15.643 Z M130.49,16.464 L130.49,16.533 C130.49,17.453 130.889,17.842 131.609,17.842 C132.058,17.842 132.648,17.743 133.228,17.552 L133.417,18.292 C132.808,18.612 132.088,18.822 131.349,18.822 C130.039,18.822 129.17,18.173 129.17,16.343 C129.17,14.554 130.039,13.594 131.439,13.594 C132.728,13.594 133.577,14.314 133.438,16.464 L130.49,16.464 L130.49,16.464 Z" id="Fill-33" fill="#121212"></path>
                <path d="M137.389,14.844 C137.179,14.784 137.049,14.774 136.949,14.774 C136.669,14.774 136.429,14.964 135.979,15.534 L135.979,18.712 L134.69,18.712 L134.69,13.705 L135.749,13.705 L135.849,14.484 C136.359,13.814 136.699,13.604 137.059,13.604 C137.208,13.604 137.378,13.634 137.538,13.714 L137.389,14.844" id="Fill-34" fill="#121212"></path>
                <path d="M139.62,18.812 C139.061,18.812 138.551,18.671 138.062,18.402 L138.171,17.732 C138.741,17.862 139.08,17.902 139.391,17.902 C140.05,17.902 140.3,17.652 140.3,17.352 C140.3,17.023 140.14,16.853 139.41,16.593 C138.451,16.253 138.081,15.843 138.081,15.114 C138.081,14.205 138.811,13.594 139.91,13.594 C140.36,13.594 140.79,13.695 141.31,13.964 L141.169,14.624 C140.75,14.524 140.46,14.474 140.18,14.474 C139.66,14.474 139.431,14.713 139.431,14.994 C139.431,15.294 139.601,15.444 140.31,15.704 C141.289,16.033 141.66,16.503 141.66,17.222 C141.66,18.133 140.91,18.812 139.62,18.812" id="Fill-35" fill="#121212"></path>
                <path d="M142.741,18.712 L144.03,18.712 L144.03,13.705 L142.741,13.705 L142.741,18.712 Z M143.39,13.055 C142.771,13.055 142.62,12.895 142.62,12.385 C142.62,11.885 142.781,11.715 143.39,11.715 C144.01,11.715 144.15,11.866 144.15,12.385 C144.15,12.885 144,13.055 143.39,13.055 L143.39,13.055 Z" id="Fill-36" fill="#121212"></path>
                <path d="M146.85,18.812 C145.931,18.812 145.581,18.462 145.581,17.503 L145.581,14.604 L144.951,14.604 L144.951,13.705 L145.631,13.705 C145.751,13.254 145.841,12.805 145.931,12.246 L146.87,12.246 L146.87,13.705 L147.98,13.705 L147.98,14.604 L146.87,14.604 L146.87,17.182 C146.87,17.692 146.991,17.852 147.32,17.852 C147.48,17.852 147.69,17.833 148.01,17.743 L148.11,18.482 C147.64,18.721 147.23,18.812 146.85,18.812" id="Fill-37" fill="#121212"></path>
                <path d="M149.269,20.501 C149.049,20.501 148.77,20.431 148.51,20.291 L148.51,19.551 C148.66,19.571 148.89,19.582 149.009,19.582 C149.329,19.582 149.549,19.511 149.729,19.361 C149.939,19.181 150.019,19.011 150.019,18.772 C150.019,18.572 149.959,18.272 149.789,17.782 L148.55,13.705 L149.929,13.705 L150.708,16.513 C150.859,16.993 150.949,17.453 150.928,17.753 C151.308,16.583 151.658,15.044 151.758,13.705 L153.087,13.705 C152.287,18.931 150.649,20.501 149.269,20.501" id="Fill-38" fill="#121212"></path>
                <path d="M158.239,14.545 C157.649,14.545 157.24,14.954 157.24,16.093 C157.24,17.503 157.609,17.873 158.248,17.873 C158.828,17.873 159.238,17.462 159.238,16.323 C159.238,14.914 158.868,14.545 158.239,14.545 Z M158.139,18.822 C156.719,18.822 155.92,18.102 155.92,16.303 C155.92,14.454 156.849,13.594 158.338,13.594 C159.758,13.594 160.557,14.314 160.557,16.113 C160.557,17.952 159.628,18.822 158.139,18.822 L158.139,18.822 Z" id="Fill-39" fill="#121212"></path>
                <path d="M164.248,12.565 C164.038,12.485 163.839,12.445 163.658,12.445 C163.269,12.445 163.119,12.645 163.119,13.065 L163.119,13.705 L164.019,13.705 L164.019,14.604 L163.119,14.604 L163.119,18.712 L161.84,18.712 L161.84,14.604 L161.201,14.604 L161.201,13.705 L161.84,13.705 L161.84,13.105 C161.84,12.116 162.23,11.515 163.24,11.515 C163.739,11.515 164.139,11.666 164.439,11.826 L164.248,12.565" id="Fill-40" fill="#121212"></path>
                <path d="M111.589,24.155 C111.31,25.114 110.97,26.353 110.72,27.373 L112.519,27.373 C112.24,26.334 111.919,25.194 111.589,24.155 Z M113.029,29.712 C112.949,29.332 112.839,28.772 112.739,28.383 L110.51,28.383 C110.42,28.762 110.31,29.252 110.231,29.712 L108.941,29.712 C109.441,27.463 110.101,25.134 110.81,22.965 L112.579,22.965 C113.359,25.274 113.949,27.443 114.488,29.712 L113.029,29.712 L113.029,29.712 Z" id="Fill-41" fill="#121212"></path>
                <path d="M117.56,25.584 C117.321,25.584 116.991,25.724 116.67,26.003 L116.67,28.802 C116.84,28.873 117.05,28.902 117.271,28.902 C117.92,28.902 118.38,28.373 118.38,27.183 C118.38,26.154 118.07,25.584 117.56,25.584 Z M117.201,29.822 C117.05,29.822 116.83,29.812 116.67,29.792 L116.67,31.441 L115.381,31.441 L115.381,24.705 L116.431,24.705 L116.531,25.214 C116.941,24.844 117.42,24.594 117.92,24.594 C119.119,24.594 119.699,25.674 119.699,27.003 C119.699,28.982 118.64,29.822 117.201,29.822 L117.201,29.822 Z" id="Fill-42" fill="#121212"></path>
                <path d="M123.049,25.584 C122.81,25.584 122.48,25.724 122.16,26.003 L122.16,28.802 C122.329,28.873 122.539,28.902 122.76,28.902 C123.41,28.902 123.869,28.373 123.869,27.183 C123.869,26.154 123.559,25.584 123.049,25.584 Z M122.69,29.822 C122.539,29.822 122.32,29.812 122.16,29.792 L122.16,31.441 L120.87,31.441 L120.87,24.705 L121.92,24.705 L122.02,25.214 C122.43,24.844 122.91,24.594 123.41,24.594 C124.609,24.594 125.188,25.674 125.188,27.003 C125.188,28.982 124.129,29.822 122.69,29.822 L122.69,29.822 Z" id="Fill-43" fill="#121212"></path>
                <path d="M127.35,29.792 C126.701,29.792 126.361,29.591 126.361,28.782 L126.361,22.626 L127.65,22.626 L127.65,28.272 C127.65,28.833 127.72,28.912 127.98,28.912 C128.06,28.912 128.16,28.902 128.23,28.902 L128.28,29.662 C128.04,29.742 127.741,29.792 127.35,29.792" id="Fill-44" fill="#121212"></path>
                <path d="M129.26,29.712 L130.549,29.712 L130.549,24.705 L129.26,24.705 L129.26,29.712 Z M129.91,24.055 C129.29,24.055 129.14,23.895 129.14,23.385 C129.14,22.885 129.3,22.715 129.91,22.715 C130.53,22.715 130.669,22.866 130.669,23.385 C130.669,23.885 130.52,24.055 129.91,24.055 L129.91,24.055 Z" id="Fill-45" fill="#121212"></path>
                <path d="M134.749,26.643 C134.749,25.844 134.479,25.454 133.94,25.454 C133.38,25.454 133.08,25.944 133.04,26.664 L134.749,26.664 L134.749,26.643 Z M133.04,27.463 L133.04,27.533 C133.04,28.453 133.44,28.842 134.16,28.842 C134.609,28.842 135.199,28.743 135.779,28.552 L135.968,29.292 C135.359,29.612 134.639,29.822 133.9,29.822 C132.59,29.822 131.721,29.172 131.721,27.343 C131.721,25.554 132.59,24.594 133.99,24.594 C135.279,24.594 136.128,25.314 135.989,27.463 L133.04,27.463 L133.04,27.463 Z" id="Fill-46" fill="#121212"></path>
                <path d="M139.99,25.614 C139.809,25.554 139.6,25.514 139.379,25.514 C138.73,25.514 138.281,26.044 138.281,27.233 C138.281,28.293 138.59,28.833 139.1,28.833 C139.339,28.833 139.66,28.692 139.99,28.413 L139.99,25.614 Z M140.229,29.712 L140.129,29.202 C139.709,29.562 139.249,29.822 138.72,29.822 C137.551,29.822 136.961,28.753 136.961,27.413 C136.961,25.394 138.05,24.594 139.43,24.594 C139.629,24.594 139.86,24.615 139.99,24.625 L139.99,22.626 L141.279,22.626 L141.279,29.712 L140.229,29.712 L140.229,29.712 Z" id="Fill-47" fill="#121212"></path>
                <path d="M147.01,29.812 C146.22,29.812 145.551,29.551 144.981,29.172 L145.301,28.463 C145.84,28.682 146.38,28.822 146.76,28.822 C147.449,28.822 147.879,28.522 147.879,27.953 C147.879,26.633 145.061,26.893 145.061,24.774 C145.061,23.615 145.96,22.866 147.22,22.866 C147.85,22.866 148.459,23.036 149.029,23.416 L148.709,24.115 C148.28,23.945 147.839,23.845 147.47,23.845 C146.8,23.845 146.491,24.165 146.491,24.615 C146.491,25.934 149.378,25.714 149.378,27.793 C149.378,28.932 148.539,29.812 147.01,29.812" id="Fill-48" fill="#121212"></path>
                <path d="M152.209,29.812 C150.89,29.812 150.21,28.972 150.21,27.273 C150.21,25.694 151.02,24.594 152.299,24.594 C152.939,24.594 153.449,24.825 153.798,25.224 L153.348,25.883 C153.118,25.674 152.838,25.554 152.498,25.554 C151.919,25.554 151.549,26.093 151.549,27.143 C151.549,28.363 151.879,28.842 152.458,28.842 C152.859,28.842 153.189,28.713 153.518,28.422 L153.908,29.082 C153.518,29.482 152.968,29.812 152.209,29.812" id="Fill-49" fill="#121212"></path>
                <path d="M154.869,29.712 L156.158,29.712 L156.158,24.705 L154.869,24.705 L154.869,29.712 Z M155.519,24.055 C154.9,24.055 154.749,23.895 154.749,23.385 C154.749,22.885 154.91,22.715 155.519,22.715 C156.139,22.715 156.279,22.866 156.279,23.385 C156.279,23.885 156.129,24.055 155.519,24.055 L155.519,24.055 Z" id="Fill-50" fill="#121212"></path>
                <path d="M160.359,26.643 C160.359,25.844 160.088,25.454 159.549,25.454 C158.99,25.454 158.69,25.944 158.65,26.664 L160.359,26.664 L160.359,26.643 Z M158.65,27.463 L158.65,27.533 C158.65,28.453 159.049,28.842 159.769,28.842 C160.218,28.842 160.808,28.743 161.388,28.552 L161.577,29.292 C160.968,29.612 160.248,29.822 159.509,29.822 C158.199,29.822 157.33,29.172 157.33,27.343 C157.33,25.554 158.199,24.594 159.599,24.594 C160.888,24.594 161.738,25.314 161.598,27.463 L158.65,27.463 L158.65,27.463 Z" id="Fill-51" fill="#121212"></path>
                <path d="M167.007,29.712 L165.728,29.712 C165.728,28.703 165.757,27.672 165.757,27.084 C165.757,25.894 165.528,25.624 165.068,25.624 C164.798,25.624 164.468,25.784 164.138,26.034 L164.138,29.712 L162.849,29.712 L162.849,24.705 L163.908,24.705 L163.998,25.234 C164.428,24.844 164.938,24.594 165.518,24.594 C166.527,24.594 167.047,25.234 167.047,26.863 C167.047,27.483 167.007,28.612 167.007,29.712" id="Fill-52" fill="#121212"></path>
                <path d="M170.179,29.812 C168.86,29.812 168.18,28.972 168.18,27.273 C168.18,25.694 168.99,24.594 170.269,24.594 C170.908,24.594 171.418,24.825 171.768,25.224 L171.318,25.883 C171.088,25.674 170.808,25.554 170.468,25.554 C169.889,25.554 169.519,26.093 169.519,27.143 C169.519,28.363 169.849,28.842 170.428,28.842 C170.828,28.842 171.158,28.713 171.488,28.422 L171.877,29.082 C171.488,29.482 170.938,29.812 170.179,29.812" id="Fill-53" fill="#121212"></path>
                <path d="M175.428,26.643 C175.428,25.844 175.158,25.454 174.618,25.454 C174.059,25.454 173.759,25.944 173.719,26.664 L175.428,26.664 L175.428,26.643 Z M173.719,27.463 L173.719,27.533 C173.719,28.453 174.118,28.842 174.838,28.842 C175.287,28.842 175.877,28.743 176.457,28.552 L176.647,29.292 C176.037,29.612 175.318,29.822 174.578,29.822 C173.269,29.822 172.4,29.172 172.4,27.343 C172.4,25.554 173.269,24.594 174.668,24.594 C175.957,24.594 176.807,25.314 176.667,27.463 L173.719,27.463 L173.719,27.463 Z" id="Fill-54" fill="#121212"></path>
                <path d="M179.109,29.812 C178.549,29.812 178.039,29.672 177.55,29.402 L177.66,28.732 C178.229,28.862 178.569,28.902 178.879,28.902 C179.538,28.902 179.788,28.652 179.788,28.352 C179.788,28.023 179.628,27.853 178.899,27.593 C177.94,27.253 177.57,26.843 177.57,26.114 C177.57,25.205 178.299,24.594 179.399,24.594 C179.848,24.594 180.279,24.695 180.798,24.964 L180.658,25.624 C180.239,25.524 179.949,25.474 179.668,25.474 C179.149,25.474 178.919,25.714 178.919,25.994 C178.919,26.294 179.089,26.444 179.798,26.704 C180.778,27.033 181.148,27.503 181.148,28.222 C181.148,29.133 180.398,29.812 179.109,29.812" id="Fill-55" fill="#121212"></path>
            </g>
        </g>
    </g>
</svg>